<svg width="1440" height="330" viewBox="0 0 1440 330" fill="none" xmlns="http://www.w3.org/2000/svg">
<rect width="1440" height="330" fill="#F2FCFF"/>
<path d="M23.2303 6.60792L8.67265 20.1335L13.7317 27.7739C14.7641 29.3227 14.8674 31.2844 14.0414 33.0396C14.0414 33.0396 14.0414 33.0396 14.0414 33.1429C13.2154 34.7948 11.6667 36.0338 9.80833 36.3436L0.722732 37.5826L0 57.4063L8.98238 59.2648C10.8408 59.6778 12.2862 61.02 12.9057 62.672C12.9057 62.672 12.9057 62.672 12.9057 62.7753C13.5252 64.5305 13.3187 66.4922 12.183 67.9377L6.60774 75.1651L13.3187 82.4958L20.0297 89.8264L27.6698 84.7672C29.2185 83.7348 31.1802 83.6315 32.9354 84.4575C32.9354 84.4575 32.9353 84.4575 33.0386 84.4575C34.6905 85.2835 35.9295 86.8322 36.2392 88.6907L37.4782 97.7766L57.3013 98.4993L59.1597 89.5167C59.5727 87.6582 60.9149 86.2127 62.5668 85.5932C62.5668 85.5932 62.5668 85.5932 62.6701 85.5932C64.4252 84.9737 66.3869 85.1802 67.8323 86.316L75.0595 91.8914L89.6172 78.3658L84.5581 70.7254C83.5257 69.1767 83.4224 67.2149 84.2484 65.4597C84.2484 65.4597 84.2484 65.4597 84.2484 65.3565C85.0743 63.7045 86.623 62.4655 88.4815 62.1558L97.5671 60.9168L98.2898 41.093L89.3074 39.2345C87.449 38.8215 86.0036 37.4793 85.3841 35.8273C85.3841 35.8273 85.3841 35.8273 85.3841 35.7241C84.7646 33.9688 84.9711 32.0071 86.1068 30.5616L91.6821 23.3342L84.9711 16.0036L78.2602 8.6729L70.62 13.7321C69.0713 14.7646 67.1096 14.8678 65.3545 14.0418C65.3545 14.0418 65.3545 14.0418 65.2512 14.0418C63.5993 13.2158 62.3603 11.6671 62.0506 9.80863L60.8117 0.722738L40.9885 0L39.1301 8.98264C38.7171 10.8411 37.3749 12.2866 35.723 12.9061C35.723 12.9061 35.723 12.9061 35.6197 12.9061C33.8645 13.5256 31.9029 13.3191 30.4574 12.1834L23.2303 6.60792ZM70.62 29.1162C81.6673 40.9898 80.9445 59.5745 69.0713 70.5189C57.1981 81.5665 38.6139 80.8438 27.6698 68.9702C16.6226 57.0966 17.3453 38.5118 29.2185 27.5674C40.9885 16.623 59.5727 17.2425 70.62 29.1162Z" transform="translate(729.288 112.432)" fill="#E0F9FF"/>
<path d="M10.3246 2.89096L3.92335 8.87939L6.09148 12.2866C6.50446 13.0093 6.60772 13.8353 6.19473 14.5581C5.885 15.2808 5.16229 15.7971 4.33633 15.9003L0.309756 16.4166L0 25.1927L3.92335 26.0187C4.74931 26.2252 5.36877 26.7414 5.67851 27.5674C5.98824 28.2902 5.88501 29.2194 5.36878 29.8389L2.89089 33.0396L5.88501 36.2403L8.87912 39.441L12.2862 37.2728C13.0089 36.8598 13.8349 36.7566 14.5576 37.1695C15.2803 37.4793 15.7966 38.202 15.8998 39.028L16.416 43.0547L25.1919 43.3645L26.0179 39.441C26.2244 38.615 26.7406 37.9955 27.5666 37.6858C28.2893 37.376 29.2185 37.4793 29.838 37.9955L33.0386 40.4735L39.4398 34.4851L37.2717 31.0779C36.8587 30.3551 36.7554 29.5291 37.1684 28.8064C37.4781 28.0837 38.2009 27.5674 39.0268 27.4642L43.0534 26.9479L43.3631 18.1718L39.4398 17.3458C38.6139 17.1393 37.9944 16.623 37.6846 15.7971C37.3749 15.0743 37.4782 14.1451 37.9944 13.5256L40.4723 10.3249L37.4782 7.12417L34.484 3.92345L31.0769 6.09168C30.3542 6.50467 29.5282 6.60792 28.8055 6.19493C28.0828 5.88518 27.5666 5.16244 27.4633 4.33645L26.9471 0.309742L18.1712 0L17.3453 3.92345C17.1388 4.74944 16.6226 5.36894 15.7966 5.67868C15.0739 5.98843 14.1446 5.88518 13.5252 5.36893L10.3246 2.89096ZM31.2834 12.9061C36.136 18.1718 35.8262 26.3284 30.5607 31.1811C25.2952 36.0338 17.1388 35.7241 12.2862 30.4584C7.43367 25.1927 7.74342 17.036 13.0089 12.1834C18.2745 7.33066 26.4309 7.64041 31.2834 12.9061Z" transform="translate(832.637 139.173)" fill="#E0F9FF"/>
<path d="M15.0739 4.2332L5.57527 13.0093L8.87912 17.9653C9.4986 18.9978 9.60184 20.2368 9.08561 21.3725C8.56938 22.5082 7.53694 23.231 6.40124 23.4375L0.516228 24.2635L0 37.1696L5.78176 38.4085C7.0207 38.615 7.94991 39.5443 8.3629 40.68C8.77588 41.8158 8.67263 43.0547 7.84667 44.0872L4.23307 48.8367L8.67264 53.5861L13.1122 58.3356L18.068 55.0316C19.1004 54.4121 20.3394 54.3089 21.4751 54.8251C22.6108 55.3413 23.3335 56.3738 23.54 57.5096L24.366 63.3947L37.2717 63.911L38.5106 58.1291C38.7171 56.8901 39.6463 55.9608 40.782 55.5478C41.9177 55.1348 43.1567 55.2381 44.1891 56.0641L48.9384 59.6778L58.437 50.9016L55.1331 45.9457C54.5136 44.9132 54.4104 43.6742 54.9266 42.5385C55.4429 41.4028 56.4753 40.68 57.611 40.4735L63.496 39.6475L64.0122 26.7414L58.2305 25.5024C56.9915 25.2959 56.0623 24.3667 55.6493 23.231C55.2364 22.0952 55.3396 20.8562 56.1656 19.8238L59.7792 15.0743L55.3396 10.3249L50.9001 5.57543L45.9443 8.87939C44.9118 9.49889 43.6729 9.60213 42.5372 9.08589C41.4015 8.56964 40.6788 7.53716 40.4723 6.40142L39.6463 0.516244L26.7406 0L25.5017 5.78193C25.2952 7.02091 24.366 7.95015 23.2303 8.36315C22.0945 8.77614 20.8556 8.6729 19.8232 7.84691L15.0739 4.2332ZM45.841 18.8945C52.965 26.6382 52.552 38.615 44.8086 45.8425C37.0651 52.9666 25.0887 52.5536 17.8615 44.81C10.7375 37.0663 11.1505 25.0894 18.8939 17.862C26.6374 10.7379 38.7171 11.1509 45.841 18.8945Z" transform="translate(674.671 86)" fill="#E0F9FF"/>
<path d="M23.2303 6.60792L8.67265 20.1335L13.7317 27.7739C14.7641 29.3227 14.8674 31.2844 14.0414 33.0396C14.0414 33.0396 14.0414 33.0396 14.0414 33.1429C13.2154 34.7948 11.6667 36.0338 9.80833 36.3436L0.722732 37.5826L0 57.4063L8.98238 59.2648C10.8408 59.6778 12.2862 61.02 12.9057 62.672C12.9057 62.672 12.9057 62.672 12.9057 62.7753C13.5252 64.5305 13.3187 66.4922 12.183 67.9377L6.60774 75.1651L13.3187 82.4958L20.0297 89.8264L27.6698 84.7672C29.2185 83.7348 31.1802 83.6315 32.9354 84.4575C32.9354 84.4575 32.9353 84.4575 33.0386 84.4575C34.6905 85.2835 35.9295 86.8322 36.2392 88.6907L37.4782 97.7766L57.3013 98.4993L59.1597 89.5167C59.5727 87.6582 60.9149 86.2127 62.5668 85.5932C62.5668 85.5932 62.5668 85.5932 62.6701 85.5932C64.4252 84.9737 66.3869 85.1802 67.8323 86.316L75.0595 91.8914L89.6172 78.3658L84.5581 70.7254C83.5257 69.1767 83.4224 67.2149 84.2484 65.4597C84.2484 65.4597 84.2484 65.4597 84.2484 65.3565C85.0743 63.7045 86.623 62.4655 88.4815 62.1558L97.5671 60.9168L98.2898 41.093L89.3074 39.2345C87.449 38.8215 86.0036 37.4793 85.3841 35.8273C85.3841 35.8273 85.3841 35.8273 85.3841 35.7241C84.7646 33.9688 84.9711 32.0071 86.1068 30.5616L91.6821 23.3342L84.9711 16.0036L78.2602 8.6729L70.62 13.7321C69.0713 14.7646 67.1096 14.8678 65.3545 14.0418C65.3545 14.0418 65.3545 14.0418 65.2512 14.0418C63.5993 13.2158 62.3603 11.6671 62.0506 9.80863L60.8117 0.722738L40.9885 0L39.1301 8.98264C38.7171 10.8411 37.3749 12.2866 35.723 12.9061C35.723 12.9061 35.723 12.9061 35.6197 12.9061C33.8645 13.5256 31.9029 13.3191 30.4574 12.1834L23.2303 6.60792ZM70.62 29.1162C81.6673 40.9898 80.9445 59.5745 69.0713 70.5189C57.1981 81.5665 38.6139 80.8438 27.6698 68.9702C16.6226 57.0966 17.3453 38.5118 29.2185 27.5674C40.9885 16.623 59.5727 17.2425 70.62 29.1162Z" transform="translate(508 169)" fill="#E0F9FF"/>
<path d="M13.2353 3.75681L4.94119 11.4465L7.82354 15.7904C8.41177 16.6709 8.47059 17.7862 8 18.7841C8 18.7841 8 18.7841 8 18.8428C7.52941 19.782 6.64706 20.4864 5.58823 20.6625L0.411772 21.3669L0 32.6373L5.11765 33.6939C6.17648 33.9287 7 34.6918 7.35294 35.631C7.35294 35.631 7.35294 35.631 7.35294 35.6897C7.70588 36.6876 7.58825 37.8029 6.94119 38.6247L3.76472 42.7338L7.58825 46.9015L11.4118 51.0692L15.7647 48.1929C16.6471 47.6059 17.7647 47.5472 18.7647 48.0168C18.7647 48.0168 18.7647 48.0168 18.8235 48.0168C19.7647 48.4864 20.4706 49.3669 20.6471 50.4235L21.3529 55.5891L32.6471 56L33.7059 50.8931C33.9412 49.8365 34.7059 49.0147 35.6471 48.6625C35.6471 48.6625 35.6471 48.6625 35.7059 48.6625C36.7059 48.3103 37.8235 48.4277 38.6471 49.0734L42.7647 52.2432L51.0588 44.5535L48.1765 40.2096C47.5882 39.3291 47.5294 38.2138 48 37.2159C48 37.2159 48 37.2159 48 37.1572C48.4706 36.218 49.3529 35.5136 50.4118 35.3375L55.5882 34.6331L56 23.3627L50.8823 22.3061C49.8235 22.0713 49 21.3082 48.6471 20.369C48.6471 20.369 48.6471 20.369 48.6471 20.3103C48.2941 19.3124 48.4118 18.1971 49.0588 17.3753L52.2353 13.2662L48.4118 9.09853L44.5882 4.93082L40.2353 7.80713C39.353 8.39413 38.2353 8.45283 37.2353 7.98323C37.2353 7.98323 37.2353 7.98323 37.1765 7.98323C36.2353 7.51363 35.5294 6.63312 35.3529 5.57652L34.6471 0.4109L23.3529 0L22.2941 5.10692C22.0588 6.16352 21.2941 6.98533 20.3529 7.33753C20.3529 7.33753 20.3529 7.33753 20.2941 7.33753C19.2941 7.68973 18.1765 7.57233 17.3529 6.92663L13.2353 3.75681ZM40.2353 16.5535C46.5294 23.304 46.1177 33.87 39.353 40.0922C32.5882 46.3732 22 45.9623 15.7647 39.2117C9.4706 32.4612 9.88236 21.8952 16.6471 15.673C23.3529 9.45073 33.9412 9.80293 40.2353 16.5535Z" transform="translate(836 184)" fill="#E0F9FF"/>
<path d="M10.3246 2.89096L3.92335 8.87939L6.09148 12.2866C6.50446 13.0093 6.60772 13.8353 6.19473 14.5581C5.885 15.2808 5.16229 15.7971 4.33633 15.9003L0.309756 16.4166L0 25.1927L3.92335 26.0187C4.74931 26.2252 5.36877 26.7414 5.67851 27.5674C5.98824 28.2902 5.88501 29.2194 5.36878 29.8389L2.89089 33.0396L5.88501 36.2403L8.87912 39.441L12.2862 37.2728C13.0089 36.8598 13.8349 36.7566 14.5576 37.1695C15.2803 37.4793 15.7966 38.202 15.8998 39.028L16.416 43.0547L25.1919 43.3645L26.0179 39.441C26.2244 38.615 26.7406 37.9955 27.5666 37.6858C28.2893 37.376 29.2185 37.4793 29.838 37.9955L33.0386 40.4735L39.4398 34.4851L37.2717 31.0779C36.8587 30.3551 36.7554 29.5291 37.1684 28.8064C37.4781 28.0837 38.2009 27.5674 39.0268 27.4642L43.0534 26.9479L43.3631 18.1718L39.4398 17.3458C38.6139 17.1393 37.9944 16.623 37.6846 15.7971C37.3749 15.0743 37.4782 14.1451 37.9944 13.5256L40.4723 10.3249L37.4782 7.12417L34.484 3.92345L31.0769 6.09168C30.3542 6.50467 29.5282 6.60792 28.8055 6.19493C28.0828 5.88518 27.5666 5.16244 27.4633 4.33645L26.9471 0.309742L18.1712 0L17.3453 3.92345C17.1388 4.74944 16.6226 5.36894 15.7966 5.67868C15.0739 5.98843 14.1446 5.88518 13.5252 5.36893L10.3246 2.89096ZM31.2834 12.9061C36.136 18.1718 35.8262 26.3284 30.5607 31.1811C25.2952 36.0338 17.1388 35.7241 12.2862 30.4584C7.43367 25.1927 7.74342 17.036 13.0089 12.1834C18.2745 7.33066 26.4309 7.64041 31.2834 12.9061Z" transform="translate(647 62)" fill="#E0F9FF"/>
<path d="M15.0739 4.2332L5.57527 13.0093L8.87912 17.9653C9.4986 18.9978 9.60184 20.2368 9.08561 21.3725C8.56938 22.5082 7.53694 23.231 6.40124 23.4375L0.516228 24.2635L0 37.1696L5.78176 38.4085C7.0207 38.615 7.94991 39.5443 8.3629 40.68C8.77588 41.8158 8.67263 43.0547 7.84667 44.0872L4.23307 48.8367L8.67264 53.5861L13.1122 58.3356L18.068 55.0316C19.1004 54.4121 20.3394 54.3089 21.4751 54.8251C22.6108 55.3413 23.3335 56.3738 23.54 57.5096L24.366 63.3947L37.2717 63.911L38.5106 58.1291C38.7171 56.8901 39.6463 55.9608 40.782 55.5478C41.9177 55.1348 43.1567 55.2381 44.1891 56.0641L48.9384 59.6778L58.437 50.9016L55.1331 45.9457C54.5136 44.9132 54.4104 43.6742 54.9266 42.5385C55.4429 41.4028 56.4753 40.68 57.611 40.4735L63.496 39.6475L64.0122 26.7414L58.2305 25.5024C56.9915 25.2959 56.0623 24.3667 55.6493 23.231C55.2364 22.0952 55.3396 20.8562 56.1656 19.8238L59.7792 15.0743L55.3396 10.3249L50.9001 5.57543L45.9443 8.87939C44.9118 9.49889 43.6729 9.60213 42.5372 9.08589C41.4015 8.56964 40.6788 7.53716 40.4723 6.40142L39.6463 0.516244L26.7406 0L25.5017 5.78193C25.2952 7.02091 24.366 7.95015 23.2303 8.36315C22.0945 8.77614 20.8556 8.6729 19.8232 7.84691L15.0739 4.2332ZM45.841 18.8945C52.965 26.6382 52.552 38.615 44.8086 45.8425C37.0651 52.9666 25.0887 52.5536 17.8615 44.81C10.7375 37.0663 11.1505 25.0894 18.8939 17.862C26.6374 10.7379 38.7171 11.1509 45.841 18.8945Z" transform="translate(567 121)" fill="#E0F9FF"/>
<path d="M15.0739 4.2332L5.57527 13.0093L8.87912 17.9653C9.4986 18.9978 9.60184 20.2368 9.08561 21.3725C8.56938 22.5082 7.53694 23.231 6.40124 23.4375L0.516228 24.2635L0 37.1696L5.78176 38.4085C7.0207 38.615 7.94991 39.5443 8.3629 40.68C8.77588 41.8158 8.67263 43.0547 7.84667 44.0872L4.23307 48.8367L8.67264 53.5861L13.1122 58.3356L18.068 55.0316C19.1004 54.4121 20.3394 54.3089 21.4751 54.8251C22.6108 55.3413 23.3335 56.3738 23.54 57.5096L24.366 63.3947L37.2717 63.911L38.5106 58.1291C38.7171 56.8901 39.6463 55.9608 40.782 55.5478C41.9177 55.1348 43.1567 55.2381 44.1891 56.0641L48.9384 59.6778L58.437 50.9016L55.1331 45.9457C54.5136 44.9132 54.4104 43.6742 54.9266 42.5385C55.4429 41.4028 56.4753 40.68 57.611 40.4735L63.496 39.6475L64.0122 26.7414L58.2305 25.5024C56.9915 25.2959 56.0623 24.3667 55.6493 23.231C55.2364 22.0952 55.3396 20.8562 56.1656 19.8238L59.7792 15.0743L55.3396 10.3249L50.9001 5.57543L45.9443 8.87939C44.9118 9.49889 43.6729 9.60213 42.5372 9.08589C41.4015 8.56964 40.6788 7.53716 40.4723 6.40142L39.6463 0.516244L26.7406 0L25.5017 5.78193C25.2952 7.02091 24.366 7.95015 23.2303 8.36315C22.0945 8.77614 20.8556 8.6729 19.8232 7.84691L15.0739 4.2332ZM45.841 18.8945C52.965 26.6382 52.552 38.615 44.8086 45.8425C37.0651 52.9666 25.0887 52.5536 17.8615 44.81C10.7375 37.0663 11.1505 25.0894 18.8939 17.862C26.6374 10.7379 38.7171 11.1509 45.841 18.8945Z" transform="translate(584 64)" fill="#E0F9FF"/>
<g filter="url(#filter0_d)">
<path d="M16.545 18.7812L19.1123 16.2489L18.1139 15.2641C18.7557 14.2793 19.2549 13.1539 19.4689 12.0284H20.8952V8.44099H19.4689C19.2549 7.31552 18.7557 6.19006 18.1139 5.20528L19.1123 4.29084L16.545 1.75854L15.5466 2.74332C14.5482 2.11025 13.4071 1.61786 12.2661 1.40683V0H8.62906V1.40683C7.48802 1.61786 6.34699 2.11025 5.34859 2.74332L4.35019 1.75854L1.78286 4.29084L2.78127 5.27562C2.13944 6.2604 1.64023 7.38587 1.42629 8.51133H0V12.0988H1.42629C1.64023 13.2242 2.13944 14.3497 2.78127 15.3345L1.78286 16.2489L4.35019 18.7812L5.34859 17.7964C6.34699 18.4295 7.48802 18.9219 8.62906 19.1329V20.5397H12.2661V19.1329C13.4071 18.9219 14.5482 18.4295 15.5466 17.7964L16.545 18.7812ZM7.8446 12.8022C6.41831 11.3953 6.41831 9.14441 7.8446 7.73757C9.27089 6.33074 11.553 6.33074 12.9792 7.73757C14.4055 9.14441 14.4055 11.3953 12.9792 12.8022C11.553 14.209 9.27089 14.209 7.8446 12.8022Z" transform="translate(707.038 178.358)" fill="#0DD396"/>
<path d="M14.976 12.1691C15.6179 11.1843 16.1171 10.0588 16.331 8.93338H17.7573V5.34596H16.331C16.1171 4.2205 15.6179 3.09503 14.976 2.11025L15.9745 1.19581L14.7621 0L9.91272 4.71289C11.2677 6.11972 11.2677 8.37065 9.8414 9.70714C8.41511 11.114 6.20436 11.114 4.77807 9.77748L0 14.4904L1.21235 15.6862L2.21075 14.7014C3.20915 15.3345 4.35019 15.8269 5.49122 16.0379V17.4447H9.12826V16.0379C10.2693 15.8269 11.4103 15.3345 12.4087 14.7014L13.4071 15.6862L15.9745 13.1539L14.976 12.1691Z" transform="translate(710.177 181.453)" fill="#06BA9B"/>
<path d="M22.6067 5.06459L19.5402 2.03991L18.3278 3.23571C17.1155 2.46195 15.8318 1.89922 14.4768 1.6882V0H10.198V1.6882C8.843 1.96956 7.55934 2.46195 6.34699 3.23571L5.13465 2.03991L2.06812 5.06459L3.28047 6.2604C2.49601 7.45621 1.92549 8.72236 1.71155 10.0588H0V14.2793H1.71155C1.99681 15.6158 2.49601 16.882 3.28047 18.0778L2.06812 19.2736L5.13465 22.2983L6.34699 21.1025C7.55934 21.8762 8.843 22.439 10.198 22.65V24.3382H14.4768V22.65C15.8318 22.3686 17.1155 21.8762 18.3278 21.1025L19.5402 22.2983L22.6067 19.2736L21.3944 18.0778C22.1788 16.882 22.7493 15.6158 22.9633 14.2793H24.6748V10.0588H22.9633C22.678 8.72236 22.1788 7.45621 21.3944 6.2604L22.6067 5.06459ZM15.4039 15.1234C13.7637 16.8116 10.9824 16.8116 9.3422 15.1234C7.70197 13.5056 7.70197 10.7623 9.3422 9.14441C11.0537 7.52655 13.7637 7.52655 15.4039 9.14441C17.0442 10.8326 17.0442 13.5056 15.4039 15.1234Z" transform="translate(717.736 197.843)" fill="#08446D"/>
<path d="M14.6908 3.23571C13.4784 2.46195 12.1948 1.89922 10.8398 1.6882V0H6.56093V1.6882C5.20596 1.96956 3.9223 2.46195 2.70995 3.23571L1.49761 2.03991L0 3.51708L5.70516 9.14441C7.41671 7.52655 10.0553 7.52655 11.6956 9.21475C13.3358 10.8326 13.3358 13.5056 11.7669 15.1234L17.4721 20.7508L18.9697 19.2736L17.7573 18.0778C18.5418 16.882 19.1123 15.6158 19.3262 14.2793H21.0378V10.0588H19.3262C19.041 8.72236 18.5418 7.45621 17.7573 6.2604L18.9697 5.06459L15.9031 2.03991L14.6908 3.23571Z" transform="translate(721.372 197.843)" fill="#00233F"/>
<path d="M12.4087 7.1045V4.99425H11.5529C11.4103 4.29084 11.1251 3.65776 10.7685 3.09503L11.339 2.5323L9.8414 1.05512L9.27089 1.61786C8.70037 1.26615 8.05854 0.984782 7.34539 0.844099V0H5.20596V0.844099C4.49281 0.984782 3.85098 1.26615 3.28047 1.61786L2.70995 1.05512L1.06972 2.5323L1.64023 3.09503C1.28366 3.65776 0.998401 4.29084 0.855772 4.99425H0V7.1045H0.855772C0.998401 7.80792 1.28366 8.44099 1.64023 9.00372L1.06972 9.56646L2.56732 11.0436L3.13784 10.4809C3.70835 10.8326 4.35018 11.114 5.06333 11.2547V12.0988H7.20276V11.2547C7.91591 11.114 8.55774 10.8326 9.12826 10.4809L9.69877 11.0436L11.1964 9.56646L10.7685 9.00372C11.1251 8.44099 11.4103 7.80792 11.5529 7.1045H12.4087ZM6.20436 8.15962C4.99201 8.15962 4.06493 7.24518 4.06493 6.04938C4.06493 4.85357 4.99201 3.93913 6.20436 3.93913C7.41671 3.93913 8.3438 4.85357 8.3438 6.04938C8.3438 7.24518 7.41671 8.15962 6.20436 8.15962Z" transform="translate(730.145 184.9)" fill="#D32A0F"/>
<path d="M5.27727 4.99425C5.13464 4.29084 4.84939 3.65776 4.49281 3.09503L5.06333 2.5323L3.56573 1.05512L2.99521 1.61786C2.42469 1.26615 1.78286 0.984782 1.06972 0.844099V0H0V3.93913C1.14103 3.93913 2.13944 4.92391 2.13944 6.04938C2.13944 7.17484 1.21235 8.15962 0 8.15962V12.0988H1.06972V11.2547C1.78286 11.114 2.42469 10.8326 2.99521 10.4809L3.56573 11.0436L5.06333 9.56646L4.49281 9.00372C4.84939 8.44099 5.13464 7.80792 5.27727 7.1045H6.13305V4.99425H5.27727Z" transform="translate(736.42 184.9)" fill="#A00D05"/>
<path d="M4.64121 9.26477H351.363C353.951 9.26477 356 7.21788 356 4.63237C356 2.04685 353.951 0 351.363 0H4.64121C2.05293 0 0.00387671 2.04685 0.00387671 4.63237C-0.103968 7.21788 2.05293 9.26477 4.64121 9.26477Z" transform="translate(542 304.735)" fill="#868689"/>
<path d="M0 0C0.754914 1.61595 2.37259 2.80098 4.3138 2.80098H351.035C352.976 2.80098 354.594 1.61595 355.349 0H0Z" transform="translate(542.325 311.199)" fill="#6D6D6D"/>
<path d="M128.659 0H0V4.84784H128.659V0Z" transform="translate(648.771 299.78)" fill="#C5C4D7"/>
<path d="M128.659 0H0V4.84784H128.659V0Z" transform="translate(661.819 299.78)" fill="#A5A5AD"/>
<path d="M199.082 129.06H7.54915C3.34319 129.06 0 125.721 0 121.519V7.54109C0 3.33962 3.34319 0 7.54915 0H199.082C203.288 0 206.631 3.33962 206.631 7.54109V121.519C206.631 125.613 203.288 129.06 199.082 129.06Z" transform="translate(617.063 141.309)" fill="#2D2C56"/>
<path d="M206.631 13.574V7.00244C206.631 3.12416 203.503 0 199.621 0H7.00992C3.1275 0 0 3.12416 0 7.00244V13.574H206.631Z" transform="translate(617.063 141.201)" fill="#A7A6BB"/>
<path d="M200.915 137.679H14.4512C6.47069 137.679 0 131.215 0 123.243V14.4358C0 6.46378 6.47069 0 14.4512 0H200.807C208.788 0 215.258 6.46378 215.258 14.4358V123.243C215.366 131.215 208.788 137.679 200.915 137.679ZM14.4512 8.61838C11.2159 8.61838 8.62759 11.2039 8.62759 14.4358V103.959C8.62759 107.191 11.2159 109.777 14.4512 109.777H200.807C204.043 109.777 206.631 107.191 206.631 103.959V14.4358C206.631 11.2039 204.043 8.61838 200.807 8.61838H14.4512V8.61838Z" transform="translate(612.75 137)" fill="#868689"/>
<path d="M192.287 0H5.82362C2.58827 0 0 2.58551 0 5.8174V7.972C0 4.7401 2.58827 2.1546 5.82362 2.1546H192.18C195.415 2.1546 198.003 4.7401 198.003 7.972V5.8174C198.003 2.58551 195.415 0 192.287 0Z" transform="translate(621.378 143.464)" fill="#6D6D6D"/>
<path d="M200.915 14.4358H14.4512C6.47069 14.4358 0 7.972 0 0V2.1546C0 10.1266 6.47069 16.5904 14.4512 16.5904H200.807C208.788 16.5904 215.258 10.1266 215.258 2.1546V0C215.366 7.972 208.788 14.4358 200.915 14.4358Z" transform="translate(612.75 258.088)" fill="#6D6D6D"/>
<path d="M2.1569 4.30919C3.34812 4.30919 4.3138 3.34455 4.3138 2.1546C4.3138 0.964645 3.34812 0 2.1569 0C0.965676 0 0 0.964645 0 2.1546C0 3.34455 0.965676 4.30919 2.1569 4.30919Z" transform="translate(805.686 148.204)" fill="#FEFEFE"/>
<path d="M2.1569 4.30919C3.34812 4.30919 4.3138 3.34455 4.3138 2.1546C4.3138 0.964645 3.34812 0 2.1569 0C0.965676 0 0 0.964645 0 2.1546C0 3.34455 0.965676 4.30919 2.1569 4.30919Z" transform="translate(798.136 148.204)" fill="#202739"/>
<path d="M2.1569 4.30919C3.34812 4.30919 4.3138 3.34455 4.3138 2.1546C4.3138 0.964645 3.34812 0 2.1569 0C0.965676 0 0 0.964645 0 2.1546C0 3.34455 0.965676 4.30919 2.1569 4.30919Z" transform="translate(790.478 148.204)" fill="#FD7C3A"/>
<rect width="49.6087" height="33.3962" transform="translate(696.219 274.463)" fill="#868689"/>
<rect width="2.1569" height="30.1643" transform="translate(696.219 274.463) scale(-1 1)" fill="#6D6D6D"/>
<path d="M2.80947 11.022H4.21421C8.0933 11.022 11.2379 7.93786 11.2379 4.13327C11.2379 3.37232 10.609 2.75551 9.83316 2.75551H4.91658V0H9.83316C12.1606 0 14.0474 1.8505 14.0474 4.13327C14.0474 9.45967 9.64492 13.7776 4.21421 13.7776H0L2.80947 11.022Z" transform="translate(873.698 281.188)" fill="#CD8E5E"/>
<path d="M33.7137 0C33.7137 8.09371 31.3284 16.0149 26.8452 22.8101L25.9876 24.1107V24.7996H7.72605V24.1107L6.86846 22.8101C2.38524 16.015 0 8.0938 0 0H33.7137Z" transform="translate(848.053 277.743)" fill="#FFC261"/>
<path d="M33.7137 0H0C0 1.52182 1.25785 2.75551 2.80947 2.75551H30.9042C32.4558 2.75551 33.7137 1.52182 33.7137 0Z" transform="translate(847.008 301.854)" fill="#B47B54"/>
<path d="M1.62762 8.27501C1.23974 8.27492 0.925339 7.96647 0.925426 7.58595C0.925426 7.40332 0.999438 7.22825 1.13104 7.09909L1.44711 6.7891C1.98346 6.26271 1.98311 5.40953 1.44641 4.88349C1.38223 4.82063 1.31191 4.76414 1.2364 4.71488C-0.0399783 3.87936 -0.384139 2.18722 0.467746 0.935354C0.569238 0.786126 0.685568 0.647144 0.814979 0.520305L1.13104 0.21031C1.40049 -0.0633471 1.84518 -0.0709248 2.12419 0.193346C2.40321 0.457617 2.41094 0.893763 2.14149 1.16742C2.13587 1.17319 2.13008 1.17879 2.12419 1.18438L1.80813 1.49438C1.27178 2.02077 1.27213 2.87394 1.80883 3.39999C1.87301 3.46285 1.94333 3.51934 2.01884 3.56859C3.29522 4.40411 3.63938 6.09626 2.78749 7.34812C2.686 7.49735 2.56967 7.63633 2.44026 7.76317L2.12419 8.07316C1.9925 8.20241 1.81392 8.27501 1.62762 8.27501Z" transform="translate(862.237 268.09)" fill="#C7CCD1"/>
<path d="M1.62762 8.27499C1.23974 8.27491 0.925339 7.96646 0.925426 7.58594C0.925426 7.4033 0.999438 7.22824 1.13104 7.09908L1.44711 6.78908C1.98346 6.26269 1.98311 5.40952 1.44641 4.88347C1.38223 4.82061 1.31191 4.76413 1.2364 4.71487C-0.0399783 3.87935 -0.384139 2.18721 0.467746 0.935342C0.569238 0.786114 0.685568 0.647133 0.814979 0.520293L1.13104 0.210298C1.40058 -0.0633587 1.84518 -0.0709363 2.12419 0.193421C2.40321 0.457778 2.41094 0.893837 2.1414 1.16749C2.13578 1.17326 2.12999 1.17886 2.12419 1.18437L1.80813 1.49437C1.27178 2.02076 1.27213 2.87393 1.80883 3.39998C1.87301 3.46284 1.94333 3.51932 2.01884 3.56858C3.29522 4.4041 3.63938 6.09624 2.78749 7.34811C2.686 7.49734 2.56967 7.63632 2.44026 7.76316L2.12419 8.07315C1.9925 8.2024 1.81392 8.27499 1.62762 8.27499Z" transform="translate(866.451 268.09)" fill="#C7CCD1"/>
<path d="M1.62762 8.27501C1.23974 8.27492 0.925339 7.96647 0.925426 7.58595C0.925426 7.40332 0.999438 7.22825 1.13104 7.09909L1.44711 6.7891C1.98346 6.26271 1.98311 5.40953 1.44641 4.88349C1.38223 4.82063 1.31191 4.76414 1.2364 4.71488C-0.0399783 3.87936 -0.384139 2.18722 0.467746 0.935354C0.569238 0.786126 0.685568 0.647144 0.814979 0.520305L1.13104 0.21031C1.40049 -0.0633471 1.84518 -0.0709248 2.12419 0.193346C2.40321 0.457617 2.41094 0.893763 2.14149 1.16742C2.13587 1.17319 2.13008 1.17879 2.12419 1.18438L1.80813 1.49438C1.27178 2.02077 1.27213 2.87394 1.80883 3.39999C1.87301 3.46285 1.94333 3.51934 2.01884 3.56859C3.29522 4.40411 3.63938 6.09626 2.78749 7.34812C2.686 7.49735 2.56967 7.63633 2.44026 7.76317L2.12419 8.07316C1.9925 8.20241 1.81392 8.27501 1.62762 8.27501Z" transform="translate(858.022 268.09)" fill="#C7CCD1"/>
<path d="M2.61822 7.61212C2.32849 7.61204 2.06853 7.43749 1.96361 7.17262C1.15308 5.12407 0.504966 3.01722 0.0250729 0.870762C-0.0772973 0.503762 0.143071 0.12488 0.517258 0.0245617C0.891445 -0.0757562 1.27775 0.140292 1.38003 0.507292C1.38635 0.529939 1.39144 0.552845 1.39539 0.575922C1.86027 2.65289 2.48766 4.69154 3.27212 6.67387C3.41251 7.02856 3.23323 7.42768 2.87168 7.56537C2.79082 7.59619 2.70487 7.61204 2.61822 7.61212Z" transform="translate(849.826 285.286)" fill="#FFDB8B"/>
<path d="M1.09031 2.15582C0.822535 2.15702 0.577321 2.00874 0.458182 1.77349C0.327541 1.51585 0.199447 1.25683 0.0739863 0.996437C-0.0991475 0.655959 0.0419404 0.242287 0.389086 0.0725648C0.736232 -0.0972436 1.158 0.0411365 1.33105 0.381614C1.33553 0.390398 1.33974 0.399266 1.34387 0.408222C1.46564 0.660351 1.5897 0.91136 1.71612 1.16116C1.88838 1.50207 1.74624 1.91531 1.39865 2.08426C1.30287 2.13102 1.19734 2.15556 1.09031 2.15582Z" transform="translate(852.941 294.263)" fill="#FFDB8B"/>
<g opacity="0.25">
<path opacity="0.25" d="M17.1787 0H0V4.26845H17.1787V0Z" transform="translate(650.477 157.49)" fill="#D98E9D"/>
<path opacity="0.25" d="M7.07357 0H0V4.26845H7.07357V0Z" transform="translate(634.966 157.49)" fill="white"/>
<path opacity="0.25" d="M7.07357 0H0V4.26845H7.07357V0Z" transform="translate(634.965 165.315)" fill="white"/>
<path opacity="0.25" d="M7.07357 0H0V4.26845H7.07357V0Z" transform="translate(634.965 174.564)" fill="white"/>
<path opacity="0.25" d="M7.07357 0H0V4.26845H7.07357V0Z" transform="translate(634.965 183.812)" fill="white"/>
<path opacity="0.25" d="M7.07357 0H0V4.26845H7.07357V0Z" transform="translate(634.965 193.06)" fill="white"/>
<path opacity="0.25" d="M7.07357 0H0V4.26845H7.07357V0Z" transform="translate(634.965 202.309)" fill="white"/>
<path opacity="0.25" d="M57.599 0H0V4.26845H57.599V0Z" transform="translate(671.192 157.49)" fill="#E0E4ED"/>
<g opacity="0.25">
<path opacity="0.25" d="M17.1787 0H0V4.26845H17.1787V0Z" transform="translate(656.539 165.315)" fill="#D98E9D"/>
<path opacity="0.25" d="M57.599 0H0V4.26845H57.599V0Z" transform="translate(677.255 165.315)" fill="#E0E4ED"/>
</g>
<g opacity="0.25">
<path opacity="0.25" d="M17.1787 0H0V4.26845H17.1787V0Z" transform="translate(666.645 174.564)" fill="#D98E9D"/>
<path opacity="0.25" d="M57.599 0H0V4.26845H57.599V0Z" transform="translate(687.359 174.564)" fill="#E0E4ED"/>
</g>
<path opacity="0.25" d="M17.1787 0H0V4.26845H17.1787V0Z" transform="translate(650.477 214.403)" fill="#D98E9D"/>
<path opacity="0.25" d="M7.07357 0H0V4.26845H7.07357V0Z" transform="translate(634.965 214.403)" fill="white"/>
<path opacity="0.25" d="M7.07357 0H0V4.26845H7.07357V0Z" transform="translate(634.965 222.228)" fill="white"/>
<path opacity="0.25" d="M7.07357 0H0V4.26845H7.07357V0Z" transform="translate(634.965 231.477)" fill="white"/>
<path opacity="0.25" d="M57.599 0H0V4.26845H57.599V0Z" transform="translate(671.192 214.403)" fill="#E0E4ED"/>
<g opacity="0.25">
<path opacity="0.25" d="M17.1787 0H0V4.26845H17.1787V0Z" transform="translate(656.539 222.228)" fill="#D98E9D"/>
<path opacity="0.25" d="M57.599 0H0V4.26845H57.599V0Z" transform="translate(677.255 222.228)" fill="#E0E4ED"/>
</g>
<g opacity="0.25">
<path opacity="0.25" d="M17.1787 0H0V4.26845H17.1787V0Z" transform="translate(666.645 231.477)" fill="#D98E9D"/>
<path opacity="0.25" d="M57.599 0H0V4.26845H57.599V0Z" transform="translate(687.359 231.477)" fill="#E0E4ED"/>
</g>
<g opacity="0.25">
<path opacity="0.25" d="M17.1787 0H0V4.26845H17.1787V0Z" transform="translate(676.75 183.812)" fill="#D98E9D"/>
<path opacity="0.25" d="M87.9143 0H0V4.26845H87.9143V0Z" transform="translate(697.465 183.812)" fill="#E0E4ED"/>
</g>
<g opacity="0.25">
<path opacity="0.25" d="M17.1787 0H0V4.26845H17.1787V0Z" transform="translate(666.645 193.06)" fill="#D98E9D"/>
<path opacity="0.25" d="M57.599 0H0V4.26845H57.599V0Z" transform="translate(687.359 193.06)" fill="#E0E4ED"/>
</g>
<g opacity="0.25">
<path opacity="0.25" d="M17.1787 0H0V4.26845H17.1787V0Z" transform="translate(656.539 202.309)" fill="#D98E9D"/>
<path opacity="0.25" d="M57.599 0H0V4.26845H57.599V0Z" transform="translate(677.255 202.309)" fill="#E0E4ED"/>
</g>
</g>
</g>
<path d="M1.584 7.53V8.982L11.902 14.108V12.392L3.432 8.234L11.902 4.098V2.404L1.584 7.53ZM17.6583 11.468C17.6583 10.6173 17.7756 9.86933 18.0103 9.224C18.2449 8.564 18.5676 8.014 18.9783 7.574C19.3889 7.134 19.8656 6.804 20.4083 6.584C20.9656 6.364 21.5523 6.254 22.1683 6.254H22.3003V4.428C21.7576 4.41333 21.2516 4.47933 20.7823 4.626C20.3129 4.77267 19.8803 4.99267 19.4843 5.286C19.0883 5.56467 18.7363 5.902 18.4283 6.298C18.1203 6.694 17.8636 7.12667 17.6583 7.596V4.626H15.9643V16H17.6583V11.468ZM25.6345 10.94H34.6545C34.6691 10.8373 34.6765 10.742 34.6765 10.654C34.6765 10.566 34.6765 10.4853 34.6765 10.412C34.6765 9.576 34.5591 8.79133 34.3245 8.058C34.0898 7.32467 33.7451 6.68667 33.2905 6.144C32.8358 5.60133 32.2785 5.176 31.6185 4.868C30.9585 4.54533 30.2105 4.384 29.3745 4.384C28.5825 4.384 27.8491 4.538 27.1745 4.846C26.5145 5.154 25.9425 5.57933 25.4585 6.122C24.9745 6.65 24.5931 7.28067 24.3145 8.014C24.0505 8.73267 23.9185 9.50267 23.9185 10.324C23.9185 11.204 24.0651 12.0107 24.3585 12.744C24.6665 13.4773 25.0771 14.108 25.5905 14.636C26.1038 15.1493 26.7051 15.5527 27.3945 15.846C28.0838 16.1247 28.8171 16.264 29.5945 16.264C30.6798 16.264 31.5891 16.0733 32.3225 15.692C33.0558 15.296 33.7085 14.7753 34.2805 14.13L33.2245 13.184C32.7551 13.668 32.2345 14.0567 31.6625 14.35C31.1051 14.6433 30.4305 14.79 29.6385 14.79C29.1398 14.79 28.6631 14.7093 28.2085 14.548C27.7538 14.372 27.3431 14.1227 26.9765 13.8C26.6098 13.4627 26.3091 13.0593 26.0745 12.59C25.8398 12.106 25.6931 11.556 25.6345 10.94ZM25.6345 9.686C25.6931 9.12867 25.8251 8.61533 26.0305 8.146C26.2358 7.67667 26.4998 7.27333 26.8225 6.936C27.1451 6.584 27.5191 6.31267 27.9445 6.122C28.3698 5.91667 28.8318 5.814 29.3305 5.814C29.9025 5.814 30.4011 5.924 30.8265 6.144C31.2665 6.34933 31.6331 6.628 31.9265 6.98C32.2345 7.332 32.4691 7.74267 32.6305 8.212C32.8065 8.68133 32.9165 9.17267 32.9605 9.686H25.6345ZM48.2297 19.52V4.626H46.5357V6.804C46.3157 6.48133 46.059 6.17333 45.7657 5.88C45.487 5.58667 45.1717 5.33 44.8197 5.11C44.4677 4.89 44.0717 4.714 43.6317 4.582C43.1917 4.45 42.7077 4.384 42.1797 4.384C41.4903 4.384 40.823 4.52333 40.1777 4.802C39.5323 5.066 38.953 5.45467 38.4397 5.968C37.9263 6.46667 37.5157 7.08267 37.2077 7.816C36.8997 8.54933 36.7457 9.38533 36.7457 10.324C36.7457 11.2627 36.8997 12.0987 37.2077 12.832C37.5157 13.5653 37.9263 14.1887 38.4397 14.702C38.953 15.2007 39.5323 15.582 40.1777 15.846C40.823 16.11 41.4903 16.242 42.1797 16.242C42.7077 16.242 43.1843 16.176 43.6097 16.044C44.0497 15.912 44.4457 15.7287 44.7977 15.494C45.1497 15.2593 45.465 14.988 45.7437 14.68C46.037 14.372 46.301 14.0493 46.5357 13.712V19.52H48.2297ZM46.6017 10.302C46.6017 10.962 46.4843 11.5707 46.2497 12.128C46.0297 12.6707 45.7217 13.1327 45.3257 13.514C44.9443 13.8953 44.5043 14.196 44.0057 14.416C43.5217 14.6213 43.0157 14.724 42.4877 14.724C41.945 14.724 41.4317 14.6213 40.9477 14.416C40.4637 14.2107 40.0383 13.9173 39.6717 13.536C39.305 13.14 39.0117 12.6707 38.7917 12.128C38.5863 11.5853 38.4837 10.9767 38.4837 10.302C38.4837 9.61267 38.5863 8.99667 38.7917 8.454C39.0117 7.89667 39.2977 7.43467 39.6497 7.068C40.0163 6.68667 40.4417 6.40067 40.9257 6.21C41.4097 6.00467 41.9303 5.902 42.4877 5.902C43.0157 5.902 43.5217 6.012 44.0057 6.232C44.5043 6.43733 44.9443 6.73067 45.3257 7.112C45.7217 7.49333 46.0297 7.95533 46.2497 8.498C46.4843 9.04067 46.6017 9.642 46.6017 10.302ZM60.089 11.138C60.089 11.666 60.001 12.15 59.825 12.59C59.649 13.03 59.407 13.4113 59.099 13.734C58.8057 14.042 58.4464 14.284 58.021 14.46C57.6104 14.6213 57.163 14.702 56.679 14.702C55.667 14.702 54.8897 14.394 54.347 13.778C53.8044 13.162 53.533 12.326 53.533 11.27V4.626H51.839V11.688C51.839 12.3627 51.9344 12.9787 52.125 13.536C52.3304 14.0933 52.6164 14.5773 52.983 14.988C53.3644 15.384 53.819 15.692 54.347 15.912C54.8897 16.132 55.5057 16.242 56.195 16.242C57.1777 16.242 57.977 16.0293 58.593 15.604C59.209 15.164 59.7077 14.636 60.089 14.02V16H61.761V4.626H60.089V11.138ZM66.5837 10.94H75.6037C75.6184 10.8373 75.6257 10.742 75.6257 10.654C75.6257 10.566 75.6257 10.4853 75.6257 10.412C75.6257 9.576 75.5084 8.79133 75.2737 8.058C75.039 7.32467 74.6944 6.68667 74.2397 6.144C73.785 5.60133 73.2277 5.176 72.5677 4.868C71.9077 4.54533 71.1597 4.384 70.3237 4.384C69.5317 4.384 68.7984 4.538 68.1237 4.846C67.4637 5.154 66.8917 5.57933 66.4077 6.122C65.9237 6.65 65.5424 7.28067 65.2637 8.014C64.9997 8.73267 64.8677 9.50267 64.8677 10.324C64.8677 11.204 65.0144 12.0107 65.3077 12.744C65.6157 13.4773 66.0264 14.108 66.5397 14.636C67.053 15.1493 67.6544 15.5527 68.3437 15.846C69.033 16.1247 69.7664 16.264 70.5437 16.264C71.629 16.264 72.5384 16.0733 73.2717 15.692C74.005 15.296 74.6577 14.7753 75.2297 14.13L74.1737 13.184C73.7044 13.668 73.1837 14.0567 72.6117 14.35C72.0544 14.6433 71.3797 14.79 70.5877 14.79C70.089 14.79 69.6124 14.7093 69.1577 14.548C68.703 14.372 68.2924 14.1227 67.9257 13.8C67.559 13.4627 67.2584 13.0593 67.0237 12.59C66.789 12.106 66.6424 11.556 66.5837 10.94ZM66.5837 9.686C66.6424 9.12867 66.7744 8.61533 66.9797 8.146C67.185 7.67667 67.449 7.27333 67.7717 6.936C68.0944 6.584 68.4684 6.31267 68.8937 6.122C69.319 5.91667 69.781 5.814 70.2797 5.814C70.8517 5.814 71.3504 5.924 71.7757 6.144C72.2157 6.34933 72.5824 6.628 72.8757 6.98C73.1837 7.332 73.4184 7.74267 73.5797 8.212C73.7557 8.68133 73.8657 9.17267 73.9097 9.686H66.5837ZM86.4012 12.81V12.766C86.4012 12.2527 86.2912 11.82 86.0712 11.468C85.8659 11.116 85.5872 10.8153 85.2352 10.566C84.8832 10.3167 84.4872 10.1113 84.0472 9.95C83.6219 9.78867 83.1892 9.642 82.7492 9.51C82.3679 9.39267 82.0012 9.27533 81.6492 9.158C81.2972 9.04067 80.9819 8.90867 80.7032 8.762C80.4392 8.61533 80.2266 8.44667 80.0652 8.256C79.9039 8.05067 79.8232 7.816 79.8232 7.552V7.508C79.8232 7.03867 80.0212 6.65 80.4172 6.342C80.8132 6.01933 81.3486 5.858 82.0232 5.858C82.5806 5.858 83.1452 5.96067 83.7172 6.166C84.3039 6.35667 84.8612 6.62067 85.3892 6.958L86.1592 5.682C85.5726 5.30067 84.9199 5 84.2012 4.78C83.4826 4.54533 82.7712 4.428 82.0672 4.428C81.5099 4.428 80.9892 4.50867 80.5052 4.67C80.0359 4.81667 79.6252 5.03667 79.2732 5.33C78.9359 5.60867 78.6719 5.95333 78.4812 6.364C78.2906 6.76 78.1952 7.2 78.1952 7.684V7.728C78.1952 8.256 78.3052 8.696 78.5252 9.048C78.7599 9.4 79.0532 9.69333 79.4052 9.928C79.7719 10.1627 80.1752 10.3607 80.6152 10.522C81.0699 10.6687 81.5172 10.808 81.9572 10.94C82.3239 11.0427 82.6759 11.1527 83.0132 11.27C83.3652 11.3873 83.6732 11.5267 83.9372 11.688C84.2012 11.8347 84.4066 12.0107 84.5532 12.216C84.7146 12.4213 84.7952 12.6633 84.7952 12.942V12.986C84.7952 13.5433 84.5752 13.9833 84.1352 14.306C83.6952 14.6287 83.1306 14.79 82.4412 14.79C81.7666 14.79 81.0919 14.6653 80.4172 14.416C79.7572 14.1667 79.1192 13.8073 78.5032 13.338L77.6452 14.548C78.2906 15.0613 79.0312 15.472 79.8672 15.78C80.7032 16.0733 81.5319 16.22 82.3532 16.22C82.9252 16.22 83.4532 16.1467 83.9372 16C84.4359 15.8387 84.8612 15.6113 85.2132 15.318C85.5799 15.0247 85.8659 14.6727 86.0712 14.262C86.2912 13.8367 86.4012 13.3527 86.4012 12.81ZM91.7288 6.122H95.3368V4.626H91.7288V1.194H90.0348V4.626H88.4508V6.122H90.0348V12.986C90.0348 13.558 90.1155 14.0493 90.2768 14.46C90.4382 14.8707 90.6582 15.208 90.9368 15.472C91.2302 15.7213 91.5748 15.9047 91.9708 16.022C92.3668 16.1393 92.7922 16.198 93.2468 16.198C93.6575 16.198 94.0242 16.154 94.3468 16.066C94.6842 15.9927 94.9995 15.8753 95.2928 15.714V14.262C94.9995 14.4087 94.7208 14.5113 94.4568 14.57C94.2075 14.6287 93.9362 14.658 93.6428 14.658C93.0708 14.658 92.6088 14.5187 92.2568 14.24C91.9048 13.9613 91.7288 13.47 91.7288 12.766V6.122ZM96.2919 18.134V19.52H109.58V18.134H96.2919ZM122.243 16V-0.0600004H120.549V6.804C120.329 6.48133 120.073 6.17333 119.779 5.88C119.501 5.58667 119.185 5.33 118.833 5.11C118.481 4.89 118.085 4.714 117.645 4.582C117.205 4.45 116.721 4.384 116.193 4.384C115.504 4.384 114.837 4.52333 114.191 4.802C113.546 5.066 112.967 5.45467 112.453 5.968C111.94 6.46667 111.529 7.08267 111.221 7.816C110.913 8.54933 110.759 9.38533 110.759 10.324C110.759 11.2627 110.913 12.0987 111.221 12.832C111.529 13.5653 111.94 14.1887 112.453 14.702C112.967 15.2007 113.546 15.582 114.191 15.846C114.837 16.11 115.504 16.242 116.193 16.242C116.721 16.242 117.198 16.176 117.623 16.044C118.063 15.912 118.459 15.7287 118.811 15.494C119.163 15.2593 119.479 14.988 119.757 14.68C120.051 14.372 120.315 14.0493 120.549 13.712V16H122.243ZM120.615 10.302C120.615 10.962 120.498 11.5707 120.263 12.128C120.043 12.6707 119.735 13.1327 119.339 13.514C118.958 13.8953 118.518 14.196 118.019 14.416C117.535 14.6213 117.029 14.724 116.501 14.724C115.959 14.724 115.445 14.6213 114.961 14.416C114.477 14.2107 114.052 13.9173 113.685 13.536C113.319 13.14 113.025 12.6707 112.805 12.128C112.6 11.5853 112.497 10.9767 112.497 10.302C112.497 9.61267 112.6 8.99667 112.805 8.454C113.025 7.89667 113.311 7.43467 113.663 7.068C114.03 6.68667 114.455 6.40067 114.939 6.21C115.423 6.00467 115.944 5.902 116.501 5.902C117.029 5.902 117.535 6.012 118.019 6.232C118.518 6.43733 118.958 6.73067 119.339 7.112C119.735 7.49333 120.043 7.95533 120.263 8.498C120.498 9.04067 120.615 9.642 120.615 10.302ZM127.041 10.94H136.061C136.075 10.8373 136.083 10.742 136.083 10.654C136.083 10.566 136.083 10.4853 136.083 10.412C136.083 9.576 135.965 8.79133 135.731 8.058C135.496 7.32467 135.151 6.68667 134.697 6.144C134.242 5.60133 133.685 5.176 133.025 4.868C132.365 4.54533 131.617 4.384 130.781 4.384C129.989 4.384 129.255 4.538 128.581 4.846C127.921 5.154 127.349 5.57933 126.865 6.122C126.381 6.65 125.999 7.28067 125.721 8.014C125.457 8.73267 125.325 9.50267 125.325 10.324C125.325 11.204 125.471 12.0107 125.765 12.744C126.073 13.4773 126.483 14.108 126.997 14.636C127.51 15.1493 128.111 15.5527 128.801 15.846C129.49 16.1247 130.223 16.264 131.001 16.264C132.086 16.264 132.995 16.0733 133.729 15.692C134.462 15.296 135.115 14.7753 135.687 14.13L134.631 13.184C134.161 13.668 133.641 14.0567 133.069 14.35C132.511 14.6433 131.837 14.79 131.045 14.79C130.546 14.79 130.069 14.7093 129.615 14.548C129.16 14.372 128.749 14.1227 128.383 13.8C128.016 13.4627 127.715 13.0593 127.481 12.59C127.246 12.106 127.099 11.556 127.041 10.94ZM127.041 9.686C127.099 9.12867 127.231 8.61533 127.437 8.146C127.642 7.67667 127.906 7.27333 128.229 6.936C128.551 6.584 128.925 6.31267 129.351 6.122C129.776 5.91667 130.238 5.814 130.737 5.814C131.309 5.814 131.807 5.924 132.233 6.144C132.673 6.34933 133.039 6.628 133.333 6.98C133.641 7.332 133.875 7.74267 134.037 8.212C134.213 8.68133 134.323 9.17267 134.367 9.686H127.041ZM148.068 6.65C147.76 6.00467 147.306 5.46933 146.704 5.044C146.103 4.604 145.34 4.384 144.416 4.384C143.932 4.384 143.507 4.44267 143.14 4.56C142.774 4.67733 142.444 4.83867 142.15 5.044C141.857 5.23467 141.593 5.462 141.358 5.726C141.138 5.99 140.933 6.26133 140.742 6.54V4.626H139.048V16H140.742V9.51C140.742 8.982 140.823 8.50533 140.984 8.08C141.146 7.64 141.366 7.25867 141.644 6.936C141.938 6.61333 142.275 6.364 142.656 6.188C143.038 6.012 143.456 5.924 143.91 5.924C144.82 5.924 145.531 6.22467 146.044 6.826C146.572 7.41267 146.836 8.24133 146.836 9.312V16H148.508V9.444C148.508 8.88667 148.589 8.388 148.75 7.948C148.926 7.508 149.154 7.14133 149.432 6.848C149.726 6.54 150.063 6.31267 150.444 6.166C150.826 6.00467 151.229 5.924 151.654 5.924C152.578 5.924 153.297 6.22467 153.81 6.826C154.338 7.41267 154.602 8.256 154.602 9.356V16H156.296V8.96C156.296 7.53733 155.922 6.42267 155.174 5.616C154.426 4.79467 153.392 4.384 152.072 4.384C151.574 4.384 151.119 4.44267 150.708 4.56C150.312 4.67733 149.953 4.83867 149.63 5.044C149.308 5.24933 149.014 5.49133 148.75 5.77C148.501 6.04867 148.274 6.342 148.068 6.65ZM171.128 10.302C171.128 9.49533 170.981 8.73267 170.688 8.014C170.395 7.29533 169.984 6.672 169.456 6.144C168.928 5.60133 168.297 5.176 167.564 4.868C166.845 4.54533 166.061 4.384 165.21 4.384C164.345 4.384 163.545 4.54533 162.812 4.868C162.093 5.176 161.47 5.60133 160.942 6.144C160.414 6.68667 160.003 7.32467 159.71 8.058C159.417 8.77667 159.27 9.53933 159.27 10.346C159.27 11.1527 159.417 11.9153 159.71 12.634C160.003 13.3527 160.414 13.9833 160.942 14.526C161.47 15.054 162.093 15.4793 162.812 15.802C163.531 16.11 164.315 16.264 165.166 16.264C166.017 16.264 166.809 16.11 167.542 15.802C168.275 15.4793 168.906 15.0467 169.434 14.504C169.962 13.9613 170.373 13.3307 170.666 12.612C170.974 11.8787 171.128 11.1087 171.128 10.302ZM169.39 10.346C169.39 10.962 169.287 11.5413 169.082 12.084C168.877 12.612 168.591 13.074 168.224 13.47C167.857 13.866 167.417 14.1813 166.904 14.416C166.391 14.636 165.826 14.746 165.21 14.746C164.609 14.746 164.051 14.6287 163.538 14.394C163.025 14.1593 162.577 13.844 162.196 13.448C161.829 13.052 161.536 12.5827 161.316 12.04C161.111 11.4973 161.008 10.918 161.008 10.302C161.008 9.686 161.111 9.114 161.316 8.586C161.521 8.04333 161.8 7.574 162.152 7.178C162.519 6.76733 162.959 6.452 163.472 6.232C163.985 5.99733 164.55 5.88 165.166 5.88C165.767 5.88 166.325 5.99733 166.838 6.232C167.351 6.46667 167.799 6.78933 168.18 7.2C168.561 7.596 168.855 8.06533 169.06 8.608C169.28 9.15067 169.39 9.73 169.39 10.346ZM184.801 8.982V7.53L174.483 2.404V4.12L182.953 8.278L174.483 12.414V14.108L184.801 8.982Z" transform="translate(627 183)" fill="white"/>
<defs>
<filter id="filter0_d" x="532" y="131" width="376" height="197" filterUnits="userSpaceOnUse" color-interpolation-filters="sRGB">
<feFlood flood-opacity="0" result="BackgroundImageFix"/>
<feColorMatrix in="SourceAlpha" type="matrix" values="0 0 0 0 0 0 0 0 0 0 0 0 0 0 0 0 0 0 255 0"/>
<feOffset dy="4"/>
<feGaussianBlur stdDeviation="5"/>
<feColorMatrix type="matrix" values="0 0 0 0 0 0 0 0 0 0 0 0 0 0 0 0 0 0 0.15 0"/>
<feBlend mode="normal" in2="BackgroundImageFix" result="effect1_dropShadow"/>
<feBlend mode="normal" in="SourceGraphic" in2="effect1_dropShadow" result="shape"/>
</filter>
</defs>
</svg>
