<svg width="52" height="48" viewBox="0 0 52 48" fill="none" xmlns="http://www.w3.org/2000/svg">
<rect width="52" height="48" fill="black" fill-opacity="0"/>
<path d="M32.2834 31.0718L32.0668 41.0156L26 45.5141L20.0417 41.134L19.7167 31.0718C19.7167 31.0718 21.6667 29.0594 21.125 27.0469H30.6584C30.3334 29.0594 32.2834 31.0718 32.2834 31.0718Z" fill="#F8B64C"/>
<path d="M45.3916 48V44.5671C45.3916 41.2524 43.7666 38.1746 41.1666 36.5174L36.725 33.7946L32.2833 31.0719L28.3833 41.3709L26.8667 34.3865L27.9501 33.0844H24.0501L25.1334 34.3865L23.6168 41.3709L19.8252 31.0719L15.3836 33.7946L10.9419 36.5173C8.34192 38.1745 6.71692 41.2524 6.71692 44.567V47.9999H45.3916V48Z" fill="#F2F2F2"/>
<rect width="19.9756" height="5.64441" fill="black" fill-opacity="0" transform="translate(15.9672 15.6042)"/>
<path d="M19.5975 17.7928C19.1411 16.5841 18.1434 15.8873 17.3691 16.2364C16.5949 16.5854 16.3371 17.8483 16.7935 19.057C17.2499 20.2657 18.2476 20.9626 19.0218 20.6135C19.7961 20.2644 20.0539 19.0015 19.5975 17.7928Z" fill="#F8B64C"/>
<path d="M32.3124 17.796C31.8561 19.0047 32.1138 20.2675 32.8881 20.6166C33.6624 20.9657 34.66 20.2688 35.1164 19.0601C35.5728 17.8514 35.3151 16.5886 34.5408 16.2395C33.7665 15.8904 32.7688 16.5873 32.3124 17.796Z" fill="#F8B64C"/>
<path d="M34.6666 14.4988C34.6666 14.9723 34.6666 15.5642 34.5582 16.156C33.9082 21.7198 30.3332 30.7166 25.9999 30.7166C21.6665 30.7166 18.0915 21.7198 17.4415 16.0376C17.3331 15.5641 17.3331 14.9722 17.3331 14.4986C17.3331 9.29002 21.2331 5.02838 25.9998 5.02838C30.7664 5.02838 34.6666 9.29013 34.6666 14.4988Z" fill="#FFD15C"/>
<path d="M17.6584 17.8134C17.4418 16.5113 17.55 14.7356 18.3084 13.7885C18.3084 13.7885 17.6584 7.75118 21.6668 8.10632C21.6668 8.10632 24.9168 9.29014 30.9834 8.10632C30.9834 8.10632 33.475 7.9879 33.0418 10.829C33.0418 10.829 32.3918 13.4334 33.6918 14.0252L34.2334 17.695L34.775 14.9723C35.75 10.0004 34.6667 5.02851 30.4417 2.77927C30.3333 2.77927 30.3333 2.77927 30.3333 2.77927C30.8749 1.95059 31.9583 2.30572 31.9583 2.30572C24.8083 -2.66619 20.0417 1.95059 20.0417 1.95059C14.95 7.04091 16.575 12.9598 16.575 12.9598C16.0334 15.0906 17.6584 17.8134 17.6584 17.8134Z" fill="#40596B"/>
<rect width="52" height="35.5137" fill="black" fill-opacity="0" transform="translate(0 8.81659)"/>
<path d="M10.075 35.0967L14.5166 32.374L18.525 29.888V29.7696C18.9584 29.1778 19.2834 28.4675 19.6084 27.7572C18.6334 26.1 17.7667 24.2059 17.1167 22.075C16.3584 21.6015 15.7084 20.7729 15.3834 19.8258C14.95 18.7604 14.95 17.5766 15.275 16.5112C14.8416 15.209 14.625 14.0252 14.8416 12.9598C14.7333 12.2495 14.5166 10.7106 14.7333 8.93489C11.9166 8.81647 10.2916 10.4739 10.2916 10.4739C6.39163 14.3803 7.58327 18.8787 7.58327 18.8787C7.36663 19.8257 7.69163 20.8911 8.1249 21.7198C7.7999 22.0749 7.69153 22.9036 8.01653 23.6139C8.23316 24.3242 8.7749 24.6793 9.20816 24.7977C9.7498 26.5734 10.5082 28.3491 11.3748 29.7696C11.6998 31.3086 10.2914 32.8474 10.2914 32.8474L6.8248 34.9783L3.25 36.9908C1.19163 38.2929 0 40.5421 0 43.1465V44.3303H4.98337C5.09163 40.5421 7.04163 36.9908 10.075 35.0967Z" fill="#ACB3BA"/>
<path d="M48.75 36.9908L45.3917 34.86L41.925 32.7291C41.925 32.7291 40.5167 31.1902 40.8417 29.6513C41.7083 28.2308 42.4667 26.4551 43.0083 24.6794C43.4417 24.561 43.9833 24.0876 44.1999 23.4956C44.5249 22.5486 44.3083 21.6015 43.7666 21.3648L43.9832 20.4178C44.7416 16.6297 43.8748 12.7232 40.7332 11.0658C40.6248 10.9474 40.5166 10.9474 40.5166 10.9474C40.9499 10.3555 41.7082 10.5923 41.7082 10.5923C39.7582 9.17173 38.0248 8.81659 36.5082 8.81659C36.9416 10.829 36.8332 13.0782 36.3998 15.4458V15.6825C37.0498 16.7479 37.2665 18.2869 36.6165 19.7074C36.2915 20.6544 35.6415 21.4831 34.8831 21.9566C34.2331 24.0875 33.3665 25.9815 32.3915 27.6388C32.7165 28.3491 33.0415 29.0594 33.4748 29.6512V29.7696L41.8165 34.9783C44.9581 36.8724 46.7998 40.4237 46.9081 44.3302H52V43.1464C52 40.6604 50.7001 38.2929 48.75 36.9908Z" fill="#ACB3BA"/>
<path d="M39.3251 41.8443H37.2667V39.595H35.8584V41.8443H33.8V43.3832H35.8584V45.6323H37.2667V43.3832H39.3251V41.8443Z" fill="#FF7058"/>
</svg>
