<svg width="70" height="15" viewBox="0 0 70 15" fill="none" xmlns="http://www.w3.org/2000/svg">
<path d="M9.91626 0.857142C9.91626 0.824175 9.91626 0.791207 9.91626 0.75824C9.91626 0.725273 9.91626 0.692308 9.91626 0.659341C9.88537 0.32967 9.63822 0.032967 9.32931 0C9.29842 0 9.23663 0 9.20574 0C9.08217 0 8.9895 0.032966 8.89682 0.0659331C8.80415 0.0989001 8.71148 0.197801 8.64969 0.263735C8.55702 0.362636 8.49523 0.527472 8.49523 0.659341C8.49523 0.692308 8.49523 0.725273 8.49523 0.75824C8.49523 0.791207 8.49523 0.824175 8.49523 0.857142V1.71428C7.66116 0.65934 6.3946 0.0659331 4.97358 0.0659331C2.13153 0.0659331 0 2.37362 0 5.40659C0 8.47252 2.13153 10.7802 4.97358 10.7802C6.3946 10.7802 7.59937 10.1868 8.49523 9.0989V9.95604V9.98901V10.022C8.49523 10.4505 8.83504 10.7802 9.20574 10.7802C9.3602 10.7802 9.51466 10.7143 9.63822 10.6154L9.66912 10.5824C9.70001 10.5494 9.73091 10.5165 9.7618 10.4835C9.85447 10.3846 9.88537 10.2198 9.91626 10.0879C9.91626 10.0549 9.91626 10.0549 9.91626 10.0549C9.91626 10.022 9.91626 10.022 9.91626 9.98901V0.857142ZM7.66115 8.07692C7.01243 8.86813 6.08568 9.26373 4.94268 9.26373C2.90383 9.26373 1.42102 7.64835 1.42102 5.40659C1.42102 3.16483 2.90383 1.54945 4.94268 1.54945C7.41402 1.54945 8.55701 3.56044 8.55701 5.40659C8.55701 6.42857 8.2481 7.38461 7.66115 8.07692Z" transform="translate(50.3226)" fill="#3C3F59"/>
<path d="M8.06275 0.461539C8.00097 0.329671 7.90829 0.23077 7.78472 0.131869C7.66115 0.0659346 7.53759 0 7.41402 0C7.22867 0 7.07422 0.032968 6.98154 0.0989021C6.91976 0.131869 6.79619 0.263736 6.67262 0.527472C6.54906 0.791208 6.42549 1.15385 6.30192 1.61539L4.26306 8.04396L2.13153 1.18681C2.00796 0.791208 1.8844 0.461539 1.72994 0.263737C1.60637 0.0989021 1.42102 0 1.17388 0C1.01942 0 0.895859 0.0329675 0.741401 0.131869C0.586942 0.23077 0.494265 0.32967 0.401589 0.494505C0.308914 0.659341 0.278024 0.791209 0.278024 0.989011C0.278024 1.12088 0.308912 1.35165 0.525154 1.87912L3.33631 9.79121L3.08918 10.4505C2.93472 10.8791 2.78026 11.2088 2.65669 11.4066C2.53313 11.6374 2.34777 11.8352 2.16242 11.9341C1.97707 12.033 1.76083 12.0989 1.45191 12.0989C1.32834 12.0989 1.20478 12.0659 1.01942 12.033C0.926749 12 0.803182 12 0.710507 12C0.463373 12 0.278026 12.0659 0.154459 12.1648C0.0308918 12.2637 0 12.4286 0 12.6593C0 12.989 0.123561 13.2198 0.370696 13.3187C0.679613 13.4506 1.14299 13.5494 1.79172 13.5494C2.44045 13.5494 2.93471 13.4505 3.30541 13.2198C3.67611 13.022 3.98504 12.6923 4.20128 12.2967C4.44842 11.8681 4.69555 11.3077 4.94268 10.5495L7.90829 1.91209C7.97008 1.71429 8.03185 1.48352 8.09364 1.28571C8.12453 1.08791 8.18632 0.923077 8.18632 0.824176C8.15543 0.758242 8.12454 0.593407 8.06275 0.461539Z" transform="translate(60.9802 0.06604)" fill="#3C3F59"/>
<path d="M4.1395 4.12088L4.04682 4.08791C2.50223 3.79121 1.82262 3.52747 1.82262 2.83516C1.82262 2.37363 2.03886 2.01099 2.50223 1.78022C3.05829 1.48352 3.70701 1.45055 3.95415 1.45055C4.78822 1.45055 5.6532 1.58242 6.14746 2.47253L6.17835 2.53846C6.20925 2.60439 6.24014 2.67033 6.30192 2.73626C6.33282 2.76923 6.36371 2.8022 6.36371 2.8022C6.48727 2.9011 6.64173 3 6.82708 3C6.98154 3 7.136 2.93407 7.25957 2.83516L7.29046 2.8022C7.44492 2.67033 7.53759 2.47253 7.53759 2.24176C7.53759 2.17582 7.53759 2.14286 7.5067 2.07692C7.5067 2.01099 7.47581 1.91209 7.41402 1.84615C7.41402 1.81319 7.38314 1.81319 7.38314 1.78022L7.32135 1.68132C6.45638 0.263736 5.34428 0 3.95415 0C2.74937 0 1.66816 0.395603 1.05032 1.05494C0.617838 1.54945 0.401594 2.14286 0.401594 2.86813C0.401594 4.84615 2.28599 5.24176 3.79969 5.53846C5.31339 5.83516 6.20925 6.0989 6.20925 7.02198C6.20925 8.34066 4.63377 8.47253 3.95415 8.47253C3.05829 8.47253 1.8844 8.01099 1.48281 7.08791L1.29745 6.72528C1.20478 6.56044 1.01943 6.42857 0.834077 6.39561C0.803185 6.39561 0.741403 6.39561 0.710512 6.39561C0.586945 6.39561 0.494269 6.42857 0.401594 6.46154C0.308919 6.4945 0.216242 6.59341 0.154459 6.65934C0.0617835 6.79121 0 6.95604 0 7.12088C0 7.21978 0.0308937 7.28571 0.0308937 7.35165V7.38462C0.0308937 7.41758 0.0617826 7.45055 0.0617826 7.48352L0.185352 7.71429C0.926755 9.2967 2.6258 9.85714 3.92325 9.85714C4.57198 9.85714 5.49874 9.75824 6.27103 9.32967C7.136 8.83516 7.59938 8.01099 7.59938 6.98901C7.63027 4.84615 5.68409 4.41758 4.1395 4.12088Z" transform="translate(0 0.527588)" fill="#3C3F59"/>
<path d="M7.97007 4.41758H2.71847C2.68758 4.41758 2.65669 4.41758 2.6258 4.45055C2.44045 4.48352 2.31688 4.61539 2.19331 4.74725C2.13153 4.84615 2.06975 5.01099 2.06975 5.14286C2.06975 5.30769 2.10064 5.43956 2.19331 5.53846C2.2242 5.6044 2.2551 5.63736 2.31688 5.7033C2.40956 5.76923 2.50223 5.83517 2.6258 5.86813C2.65669 5.86813 2.65669 5.86813 2.68758 5.86813H8.06275V5.83516C8.89683 5.83516 9.23664 5.37363 9.32931 4.87912C9.23664 2.20879 7.22867 0.032967 4.72644 0C4.69554 0 4.69555 0 4.66465 0C4.1086 0 3.55255 0.0989016 3.05828 0.296704C1.54459 0.89011 0.401589 2.34066 0.0926715 4.08791C0.030888 4.41758 0 4.74725 0 5.07692C0 5.86813 0.154459 6.59341 0.463376 7.25275V7.28571C0.586944 7.54945 0.710507 7.78022 0.864966 8.01099C0.864966 8.01099 0.864968 8.04396 0.895859 8.04396C1.35924 8.76923 2.00796 9.32967 2.74937 9.72527C3.3672 10.022 4.04682 10.1538 4.78822 10.1538C4.8809 10.1538 4.97357 10.1538 5.03535 10.1538C5.40606 10.1209 5.74587 10.0549 6.05478 9.92308H6.08568C6.82708 9.69231 7.81561 9.23077 8.46434 8.30769C8.46434 8.27472 8.49524 8.27472 8.49524 8.24176C8.52613 8.20879 8.55702 8.14286 8.55702 8.10989V8.07692C8.58791 8.01099 8.58791 7.94506 8.58791 7.87912C8.58791 7.84615 8.58791 7.81319 8.58791 7.78022C8.58791 7.74725 8.58791 7.74725 8.58791 7.71429V7.68132C8.52612 7.45055 8.30988 7.25275 8.06275 7.21978H8.03186H8.00097C7.81561 7.21978 7.63026 7.31868 7.5067 7.45055C7.38313 7.58242 7.25956 7.68132 7.13599 7.81319C6.91975 7.97802 6.67262 8.10989 6.42548 8.24176C5.93122 8.47253 5.34428 8.57143 4.78822 8.57143C3.33631 8.57143 1.76083 7.61538 1.60637 5.47253C1.60637 5.24176 1.57548 4.87912 1.60637 4.74725V4.71429C1.63726 4.48352 1.66816 4.25275 1.69905 4.05495C1.79172 3.69231 1.91529 3.32967 2.10064 3.03297C2.65669 2.07692 3.64523 1.51648 4.78822 1.51648C5.34428 1.51648 5.80765 1.61539 6.24014 1.78022C6.27103 1.78022 6.30192 1.81319 6.33281 1.81319C6.3637 1.81319 6.39459 1.84615 6.42548 1.87912C6.45638 1.91209 6.51816 1.91209 6.54905 1.94506C7.38313 2.43956 8.00097 3.32967 8.09364 4.38462L7.97007 4.41758Z" transform="translate(27.3083 0.39563)" fill="#3C3F59"/>
<path d="M0 0C0 0.032967 0 0.0659331 0 0.0659331V0Z" transform="translate(21.8096 0.527588)" fill="white"/>
<path d="M7.84651 0C7.81562 0 7.75384 0 7.72294 0C7.59938 0 7.5067 0.0329685 7.41403 0.0659356C7.32135 0.0989026 7.22867 0.197803 7.16689 0.263737C7.136 0.296704 7.10511 0.362639 7.07421 0.395606C7.07421 0.428573 7.04333 0.461539 7.04333 0.461539C7.04333 0.461539 7.04332 0.494505 7.01243 0.494505L6.95065 0.626374L6.27103 2.47253V2.50549L5.77676 3.85714L5.74587 3.92308L5.6223 4.21978L4.94268 5.96703L4.23217 7.84615L3.49077 5.96703L2.81115 4.21978L2.68758 3.92308L2.65669 3.85714L2.16242 2.50549V2.47253L1.48281 0.626374L1.42102 0.494505C1.42102 0.494505 1.42102 0.461539 1.39013 0.461539C1.39013 0.428572 1.35924 0.395606 1.35924 0.395606C1.32834 0.362639 1.29745 0.296704 1.26656 0.263737C1.20478 0.197803 1.1121 0.0989026 1.01943 0.0659356C0.926754 1.50813e-06 0.803187 0 0.710512 0C0.67962 0 0.617834 0 0.586942 0C0.247132 0.0659341 0 0.362638 0 0.758243C0 0.824177 -2.82869e-06 0.857144 0.0308889 0.923078C0.0308889 0.956045 0.0617826 0.98901 0.0617826 1.02198L0.154459 1.25275L2.44045 7.38462V7.41758L2.59491 7.84615L3.27453 9.59341L3.30542 9.65934C3.39809 9.89011 3.58344 10.0879 3.83058 10.1868C3.95415 10.2527 4.07771 10.2527 4.20128 10.2527C4.32485 10.2527 4.44842 10.2198 4.57198 10.1868C4.63377 10.1538 4.72644 10.1209 4.78822 10.0549L4.85001 9.98901C4.94268 9.89011 5.03536 9.79121 5.06625 9.69231L5.12803 9.56044V9.52747L5.77676 7.87912L5.93122 7.45055V7.41758L8.21721 1.28571L8.30989 1.05495C8.30989 1.02198 8.34078 0.989011 8.34078 0.956044C8.34078 0.89011 8.37167 0.857143 8.37167 0.791209C8.43345 0.395605 8.18632 0.0659341 7.84651 0Z" transform="translate(18.8748 0.428589)" fill="#3C3F59"/>
<path d="M9.45288 0.692307C9.45288 0.65934 9.45288 0.626374 9.45288 0.626374C9.42199 0.296704 9.17485 0.032967 8.89683 0C8.86594 0 8.80415 0 8.77326 0C8.64969 0 8.55702 0.0329685 8.46434 0.0659356C8.37167 0.0989026 8.30988 0.164836 8.2481 0.263737C8.15542 0.362638 8.12453 0.494505 8.09364 0.659341C8.09364 0.692308 8.09364 0.725276 8.09364 0.758243C8.09364 0.79121 8.09364 0.824175 8.09364 0.857142V1.68132C7.29045 0.692307 6.11657 0.0989021 4.72644 0.0989021C2.03886 0.0989021 0 2.27473 0 5.17583C0 8.10989 2.03886 10.2857 4.72644 10.2857C6.05479 10.2857 7.22867 9.72528 8.09364 8.67033V9.49451V9.52747V9.56044C8.09364 9.95604 8.40256 10.2857 8.77326 10.2857C8.92772 10.2857 9.08218 10.2198 9.17485 10.1209L9.20575 10.0879C9.23664 10.0549 9.26753 10.022 9.29842 9.98901C9.3911 9.89011 9.42199 9.75824 9.45288 9.59341V9.56044C9.45288 9.52747 9.45288 9.52747 9.45288 9.49451V0.758243C9.45288 0.725276 9.45288 0.692307 9.45288 0.692307ZM7.29046 7.64835C6.67262 8.4066 5.77676 8.8022 4.72644 8.8022C2.78026 8.8022 1.35924 7.25275 1.35924 5.10989C1.35924 3 2.78026 1.45055 4.72644 1.45055C7.07421 1.45055 8.15542 3.36264 8.15542 5.10989C8.15542 6.06593 7.84651 6.98901 7.29046 7.64835Z" transform="translate(8.43347 0.428589)" fill="#3C3F59"/>
<path d="M6.36371 0.197802L4.94268 1.15385L4.54109 1.41758L1.51369 3.46154L0.24714 4.31868L0 4.48352V0H5.00447C5.46785 0 5.93122 0.0659336 6.36371 0.197802Z" transform="translate(39.9121 0.230835)" fill="#3C3F59"/>
<path d="M9.7618 4.54945C9.7618 4.64835 9.7618 4.74725 9.7618 4.84616C9.60734 7.54945 7.5067 9.62638 4.97358 9.62638C3.79969 9.62638 2.6567 9.16484 1.79173 8.34066V13.3516C1.79173 13.8462 1.42102 14.2418 0.957647 14.2418H0.834081C0.370705 14.2418 0 13.8462 0 13.3516V8.30769L1.45192 6.65934L1.85351 6.1978L6.24014 1.15385L6.73441 0.593408L7.22867 0C8.6188 0.758242 9.57645 2.24176 9.73091 4.02198C9.73091 4.12088 9.73091 4.18681 9.7618 4.28571C9.7618 4.38462 9.7618 4.48352 9.7618 4.54945Z" transform="translate(39.9121 0.758301)" fill="#3C3F59"/>
</svg>
