<svg width="52" height="48" viewBox="0 0 52 48" fill="none" xmlns="http://www.w3.org/2000/svg">
<rect width="52" height="48" fill="black" fill-opacity="0"/>
<path d="M24.7231 11.4139V27.3196H34.8503V24.523H27.5168V11.4139H24.7231Z" fill="#0A4059"/>
<path d="M52 24.168C52 10.8401 41.1532 0 27.8392 0C15.8971 0 5.9575 8.79214 4.03472 20.1533H0.156677L6.84451 31.6892L13.7282 20.1533H9.71943C11.5539 11.7635 18.9904 5.59318 27.8521 5.59318C38.085 5.59318 46.4126 13.9258 46.4126 24.1692C46.4126 33.0208 40.0886 40.4438 31.8821 42.2983V48C43.2316 46.0751 52 36.122 52 24.168Z" fill="#0095DA"/>
<path d="M4.25837 45.4715L6.035 43.5809C7.18933 42.3233 7.98136 41.382 8.41124 40.7442C8.84113 40.1063 9.05607 39.3757 9.05607 38.5451C9.05607 37.3113 8.65168 36.3414 7.84307 35.6309C7.03446 34.921 5.90876 34.5662 4.4658 34.5662C3.10683 34.5662 2.0157 34.9899 1.19208 35.8352C0.368279 36.6808 -0.0286048 37.7358 0.00160237 38.9515L0.0197616 39.0301H2.99578C2.99578 38.331 3.12656 37.9092 3.38812 37.521C3.64968 37.1324 4.00885 36.9265 4.46598 36.9265C4.97688 36.9265 5.36014 37.0709 5.61559 37.3721C5.87122 37.6729 5.99886 38.073 5.99886 38.5788C5.99886 38.9338 5.87262 39.3505 5.62013 39.8319C5.36765 40.3136 5.00359 40.8603 4.46894 41.4745L0.278007 45.9153V47.9444H9.35762V45.4974H4.28543L4.25837 45.4715Z" fill="#0A4059"/>
<path d="M17.7388 34.8354H14.7705V34.7842L9.47076 43.2755L9.61813 45.1478H14.7705V47.9444H17.7388V45.1478H19.1357V42.8756H17.7388V34.8354ZM14.7705 42.8756H12.1615L14.4162 39.1203L14.6835 38.7255L14.7705 38.7204V42.8756Z" fill="#0A4059"/>
<path d="M29.0884 47.9445V42.2861C29.0884 41.8655 29.0988 41.4798 29.0524 41.122C28.9347 40.2201 28.6904 39.5134 28.2775 39.0092C27.7001 38.305 26.9157 37.9529 25.9056 37.9529C25.3945 37.9529 24.9648 38.0748 24.5409 38.3186C24.1169 38.5624 23.6755 38.9041 23.5009 39.3434V34.6606H20.358V47.9445H23.5009V40.7965C23.5009 40.6401 23.7923 40.5183 24.009 40.4309C24.2252 40.3438 24.4642 40.3001 24.7588 40.3001C25.2218 40.3001 25.5613 40.4415 25.7867 40.7242C26.0123 41.0072 26.12 41.5217 26.12 42.2682V47.9445H27.1816H29.0884Z" fill="#0A4059"/>
</svg>
