<svg width="52" height="52" viewBox="0 0 52 52" fill="none" xmlns="http://www.w3.org/2000/svg">
<rect width="52" height="52" fill="black" fill-opacity="0"/>
<rect width="52" height="52" fill="black" fill-opacity="0"/>
<rect width="52" height="52" fill="black" fill-opacity="0"/>
<rect width="52" height="52" fill="black" fill-opacity="0"/>
<path d="M26 52C40.3594 52 52 40.3594 52 26C52 11.6406 40.3594 0 26 0C11.6406 0 0 11.6406 0 26C0 40.3594 11.6406 52 26 52Z" fill="#49B9ED"/>
<path d="M19.5081 11.1182V17.1572H13.4691V43.3729H40.7848V11.1182H19.5081Z" fill="#ACB3BA"/>
<path d="M17.2543 40.8818V34.8428H11.2153V8.62714H38.531V40.8818H17.2543Z" fill="white"/>
<rect width="23.2932" height="19.5081" fill="black" fill-opacity="0" transform="translate(11.2153 21.3737)"/>
<path d="M17.2543 40.8818L11.2153 34.8428H17.2543V40.8818Z" fill="#CED5E0"/>
<path d="M34.5084 21.3737H15.2268V22.5276H34.5084V21.3737Z" fill="#CED5E0"/>
<path d="M34.5084 24.4255H15.2268V25.5794H34.5084V24.4255Z" fill="#CED5E0"/>
<path d="M34.5084 27.4882H15.2268V28.642H34.5084V27.4882Z" fill="#CED5E0"/>
<path d="M26.7225 30.5508H15.2268V31.7047H26.7225V30.5508Z" fill="#CED5E0"/>
<rect width="19.6051" height="3.47242" fill="black" fill-opacity="0" transform="translate(15.0759 12.9515)"/>
<path d="M17.7827 14.1485C17.7827 14.6877 17.567 15.0327 17.1464 15.1945L17.9984 16.3915H17.0817L16.3376 15.3239H15.82V16.3915H15.0759V13.0377H16.3484C16.8661 13.0377 17.2435 13.124 17.4592 13.2965C17.6641 13.4691 17.7827 13.7602 17.7827 14.1485ZM16.8768 14.5475C16.9739 14.4612 17.017 14.3318 17.017 14.1485C17.017 13.9651 16.9739 13.8465 16.8768 13.7818C16.7798 13.7171 16.618 13.6848 16.37 13.6848H15.8092V14.6769H16.3592C16.6072 14.6661 16.7906 14.623 16.8768 14.5475Z" fill="#54C0EB"/>
<path d="M20.9639 13.0378V13.7064H19.2924V14.3965H20.7914V15.0328H19.2924V15.723H21.0179V16.3808H18.5483V13.027H20.9639V13.0378Z" fill="#54C0EB"/>
<path d="M23.9942 13.3289C24.2314 13.5338 24.35 13.8358 24.35 14.2456C24.35 14.6553 24.2314 14.9573 23.9834 15.1514C23.7461 15.3455 23.3687 15.4426 22.8726 15.4426H22.4305V16.3808H21.6864V13.027H22.8726C23.3795 13.0378 23.7569 13.1348 23.9942 13.3289ZM23.4442 14.6553C23.5304 14.5583 23.5736 14.4073 23.5736 14.2132C23.5736 14.0191 23.5197 13.8789 23.401 13.8034C23.2824 13.7171 23.0991 13.6848 22.8618 13.6848H22.4305V14.8171H22.9373C23.1854 14.8063 23.3579 14.7524 23.4442 14.6553Z" fill="#54C0EB"/>
<path d="M27.747 15.9278C27.4127 16.2621 26.9921 16.4239 26.4961 16.4239C26 16.4239 25.5794 16.2621 25.2451 15.9278C24.9108 15.5935 24.7383 15.1837 24.7383 14.6877C24.7383 14.1916 24.9108 13.7818 25.2451 13.4475C25.5794 13.1132 26 12.9515 26.4961 12.9515C26.9921 12.9515 27.4127 13.1132 27.747 13.4475C28.0813 13.7818 28.2538 14.1916 28.2538 14.6877C28.2538 15.1837 28.0921 15.5935 27.747 15.9278ZM27.499 14.6877C27.499 14.3857 27.4019 14.1377 27.2078 13.922C27.0137 13.7064 26.7764 13.6093 26.4961 13.6093C26.2157 13.6093 25.9784 13.7171 25.7843 13.922C25.5902 14.1377 25.4932 14.3857 25.4932 14.6877C25.4932 14.9896 25.5902 15.2377 25.7843 15.4533C25.9784 15.6582 26.2157 15.7661 26.4961 15.7661C26.7764 15.7661 27.0137 15.6582 27.2078 15.4533C27.4019 15.2484 27.499 14.9896 27.499 14.6877Z" fill="#54C0EB"/>
<path d="M31.6076 14.1485C31.6076 14.6877 31.392 15.0327 30.9714 15.1945L31.8233 16.3915H30.9067L30.1626 15.3239H29.645V16.3915H28.9009V13.0377H30.1734C30.691 13.0377 31.0684 13.124 31.2841 13.2965C31.4998 13.4691 31.6076 13.7602 31.6076 14.1485ZM30.7126 14.5475C30.8096 14.4612 30.8528 14.3318 30.8528 14.1485C30.8528 13.9651 30.8096 13.8465 30.7126 13.7818C30.6155 13.7171 30.4538 13.6848 30.2057 13.6848H29.645V14.6769H30.1949C30.443 14.6661 30.6155 14.623 30.7126 14.5475Z" fill="#54C0EB"/>
<path d="M33.7321 13.6848V16.3915H32.988V13.6848H32.0391V13.0377H34.6811V13.6848H33.7321Z" fill="#54C0EB"/>
</svg>
