<svg width="175" height="37" viewBox="0 0 175 37" fill="none" xmlns="http://www.w3.org/2000/svg">
<path d="M25.0894 2.11428C25.0894 2.03297 25.0894 1.95164 25.0894 1.87033C25.0894 1.78901 25.0894 1.70769 25.0894 1.62637C25.0112 0.813187 24.3859 0.0813187 23.6043 0C23.5261 0 23.3698 0 23.2917 0C22.979 0 22.7445 0.0813162 22.5101 0.162635C22.2756 0.243954 22.0411 0.487908 21.8848 0.650546C21.6503 0.894502 21.494 1.3011 21.494 1.62637C21.494 1.70769 21.494 1.78901 21.494 1.87033C21.494 1.95164 21.494 2.03297 21.494 2.11428V4.22857C19.3837 1.62637 16.1791 0.162635 12.5838 0.162635C5.39304 0.162635 0 5.85494 0 13.3363C0 20.8989 5.39304 26.5912 12.5838 26.5912C16.1791 26.5912 19.2274 25.1275 21.494 22.444V24.5582V24.6396V24.7209C21.494 25.778 22.3537 26.5912 23.2917 26.5912C23.6825 26.5912 24.0733 26.4286 24.3859 26.1846L24.4641 26.1033C24.5422 26.022 24.6204 25.9407 24.6986 25.8593C24.933 25.6154 25.0112 25.2088 25.0894 24.8835C25.0894 24.8022 25.0894 24.8022 25.0894 24.8022C25.0894 24.7209 25.0894 24.7209 25.0894 24.6396V2.11428ZM19.3837 19.9231C17.7423 21.8747 15.3975 22.8505 12.5056 22.8505C7.34704 22.8505 3.59536 18.8659 3.59536 13.3363C3.59536 7.80659 7.34704 3.82198 12.5056 3.82198C18.7584 3.82198 21.6503 8.78241 21.6503 13.3363C21.6503 15.8571 20.8687 18.2154 19.3837 19.9231Z" transform="translate(127.323)" fill="white"/>
<path d="M20.3998 1.13846C20.2434 0.813188 20.0089 0.569232 19.6963 0.325276C19.3837 0.162639 19.071 0 18.7584 0C18.2894 0 17.8986 0.0813212 17.6642 0.243959C17.5078 0.325277 17.1952 0.650548 16.8826 1.3011C16.5699 1.95165 16.2573 2.84616 15.9446 3.98462L10.7861 19.8418L5.39303 2.92747C5.08039 1.95165 4.76776 1.13846 4.37696 0.650552C4.06432 0.243959 3.59535 0 2.97007 0C2.57927 0 2.26663 0.0813199 1.87583 0.325276C1.48503 0.569232 1.25055 0.813187 1.01607 1.21978C0.78159 1.62637 0.703435 1.95165 0.703435 2.43956C0.703435 2.76484 0.781585 3.33406 1.32871 4.63516L8.44127 24.1516L7.816 25.778C7.4252 26.8352 7.0344 27.6484 6.72176 28.1363C6.40912 28.7055 5.94016 29.1934 5.4712 29.4374C5.00224 29.6813 4.4551 29.844 3.6735 29.844C3.36086 29.844 3.04823 29.7626 2.57927 29.6813C2.34479 29.6 2.03215 29.6 1.79767 29.6C1.17239 29.6 0.70344 29.7626 0.3908 30.0066C0.07816 30.2506 0 30.6571 0 31.2264C0 32.0396 0.312626 32.6088 0.937905 32.8527C1.71951 33.178 2.89191 33.422 4.53327 33.422C6.17463 33.422 7.42518 33.178 8.3631 32.6088C9.30102 32.1209 10.0826 31.3077 10.6298 30.3319C11.255 29.2747 11.8803 27.8923 12.5056 26.022L20.009 4.71649C20.1653 4.22857 20.3216 3.65934 20.4779 3.17143C20.5561 2.68352 20.7124 2.27692 20.7124 2.03297C20.6342 1.87033 20.5561 1.46374 20.3998 1.13846Z" transform="translate(154.288 0.162781)" fill="white"/>
<path d="M10.4734 10.1648L10.239 10.0835C6.33096 9.35165 4.61145 8.7011 4.61145 6.9934C4.61145 5.85494 5.15856 4.96044 6.33096 4.39121C7.73784 3.65934 9.3792 3.57802 10.0045 3.57802C12.1148 3.57802 14.3033 3.9033 15.5538 6.0989L15.632 6.26154C15.7102 6.42417 15.7883 6.58681 15.9446 6.74945C16.0228 6.83077 16.101 6.91209 16.101 6.91209C16.4136 7.15604 16.8044 7.4 17.2734 7.4C17.6642 7.4 18.055 7.23736 18.3676 6.9934L18.4458 6.91209C18.8366 6.58681 19.071 6.0989 19.071 5.52967C19.071 5.36703 19.071 5.28571 18.9929 5.12307C18.9929 4.96044 18.9147 4.71648 18.7584 4.55384C18.7584 4.47253 18.6802 4.47253 18.6802 4.39121L18.5239 4.14725C16.3354 0.650548 13.5217 0 10.0045 0C6.95624 0 4.22065 0.975822 2.65745 2.6022C1.56321 3.82198 1.01608 5.28571 1.01608 7.07472C1.01608 11.9538 5.78384 12.9297 9.61368 13.6615C13.4435 14.3934 15.7102 15.044 15.7102 17.3209C15.7102 20.5736 11.724 20.8989 10.0045 20.8989C7.73784 20.8989 4.76776 19.7604 3.75168 17.4835L3.28272 16.589C3.04824 16.1824 2.57928 15.8571 2.11032 15.7758C2.03216 15.7758 1.87584 15.7758 1.79768 15.7758C1.48504 15.7758 1.25056 15.8571 1.01608 15.9385C0.781602 16.0198 0.54712 16.2637 0.3908 16.4264C0.15632 16.7516 0 17.1582 0 17.5648C0 17.8088 0.0781647 17.9714 0.0781647 18.1341V18.2154C0.0781647 18.2967 0.156318 18.378 0.156318 18.4593L0.468965 19.0286C2.3448 22.9319 6.6436 24.3143 9.92631 24.3143C11.5677 24.3143 13.9125 24.0703 15.8665 23.0132C18.055 21.7934 19.2274 19.7604 19.2274 17.2396C19.3055 11.9538 14.3814 10.8967 10.4734 10.1648Z" transform="translate(0 1.30121)" fill="white"/>
<path d="M20.1653 10.8967H6.87807C6.79991 10.8967 6.72176 10.8967 6.6436 10.978C6.17464 11.0593 5.86199 11.3846 5.54935 11.7099C5.39303 11.9538 5.23672 12.3604 5.23672 12.6857C5.23672 13.0923 5.31487 13.4176 5.54935 13.6615C5.62751 13.8242 5.70568 13.9055 5.862 14.0681C6.09648 14.2308 6.33096 14.3934 6.6436 14.4747C6.72176 14.4747 6.72176 14.4747 6.79992 14.4747H20.3997V14.3934C22.5101 14.3934 23.3698 13.2549 23.6043 12.0352C23.3698 5.44835 18.2894 0.0813187 11.9585 0C11.8803 0 11.8803 0 11.8021 0C10.3953 0 8.98839 0.243957 7.73783 0.731869C3.90799 2.19561 1.01607 5.77363 0.23447 10.0835C0.0781504 10.8967 0 11.7099 0 12.5231C0 14.4747 0.3908 16.2637 1.1724 17.8901V17.9714C1.48504 18.622 1.79767 19.1912 2.18847 19.7604C2.18847 19.7604 2.18847 19.8418 2.26663 19.8418C3.43903 21.6308 5.08039 23.0132 6.95623 23.989C8.51943 24.7209 10.239 25.0462 12.1148 25.0462C12.3493 25.0462 12.5837 25.0462 12.7401 25.0462C13.678 24.9648 14.5377 24.8022 15.3193 24.4769H15.3975C17.2734 23.9077 19.7745 22.7692 21.4158 20.4923C21.4158 20.411 21.494 20.411 21.494 20.3297C21.5722 20.2484 21.6503 20.0857 21.6503 20.0044V19.9231C21.7285 19.7604 21.7285 19.5978 21.7285 19.4352C21.7285 19.3538 21.7285 19.2725 21.7285 19.1912C21.7285 19.1099 21.7285 19.1099 21.7285 19.0286V18.9473C21.5721 18.378 21.025 17.8901 20.3997 17.8088H20.3216H20.2434C19.7745 17.8088 19.3055 18.0527 18.9929 18.378C18.6802 18.7033 18.3676 18.9473 18.0549 19.2725C17.5078 19.6791 16.8825 20.0044 16.2573 20.3297C15.0067 20.8989 13.5217 21.1429 12.1148 21.1429C8.44128 21.1429 4.45512 18.7846 4.06432 13.4989C4.06432 12.9297 3.98616 12.0352 4.06432 11.7099V11.6286C4.14248 11.0593 4.22064 10.4901 4.2988 10.0022C4.53328 9.10769 4.84591 8.21318 5.31487 7.48132C6.72175 5.12307 9.22288 3.74066 12.1148 3.74066C13.5217 3.74066 14.6941 3.98462 15.7883 4.39121C15.8665 4.39121 15.9446 4.47253 16.0228 4.47253C16.101 4.47253 16.1791 4.55384 16.2573 4.63516C16.3354 4.71648 16.4918 4.71648 16.5699 4.7978C18.6802 6.01758 20.2434 8.21319 20.4779 10.8154L20.1653 10.8967Z" transform="translate(69.0933 0.975769)" fill="white"/>
<path d="M0 0C0 0.0813187 0 0.162635 0 0.162635V0Z" transform="translate(55.1809 1.30121)" fill="white"/>
<path d="M19.8526 0C19.7745 0 19.6182 0 19.54 0C19.2274 0 18.9929 0.0813224 18.7584 0.162641C18.5239 0.24396 18.2894 0.487915 18.1331 0.650552C18.055 0.731871 17.9768 0.894509 17.8986 0.975828C17.8986 1.05715 17.8205 1.13846 17.8205 1.13846C17.8205 1.13846 17.8205 1.21978 17.7423 1.21978L17.586 1.54506L15.8665 6.0989V6.18022L14.6159 9.51429L14.5377 9.67692L14.2251 10.4088L12.5056 14.7187L10.7079 19.3538L8.83208 14.7187L7.11255 10.4088L6.79992 9.67692L6.72175 9.51429L5.4712 6.18022V6.0989L3.75168 1.54506L3.59535 1.21978C3.59535 1.21978 3.59536 1.13846 3.5172 1.13846C3.5172 1.05714 3.43903 0.975828 3.43903 0.975828C3.36087 0.894509 3.28271 0.731871 3.20455 0.650552C3.04823 0.487915 2.81376 0.24396 2.57928 0.162641C2.3448 3.72005e-06 2.03216 0 1.79768 0C1.71952 0 1.56319 0 1.48503 0C0.625275 0.162637 0 0.894508 0 1.87033C0 2.03297 -7.15692e-06 2.11429 0.0781528 2.27693C0.0781528 2.35824 0.156318 2.43956 0.156318 2.52088L0.3908 3.09011L6.17463 18.2154V18.2967L6.56543 19.3538L8.28495 23.6637L8.36312 23.8264C8.5976 24.3956 9.06655 24.8835 9.69183 25.1275C10.0045 25.2901 10.3171 25.2901 10.6298 25.2901C10.9424 25.2901 11.255 25.2088 11.5677 25.1275C11.724 25.0462 11.9585 24.9648 12.1148 24.8022L12.2711 24.6396C12.5056 24.3956 12.7401 24.1516 12.8182 23.9077L12.9746 23.5824V23.5011L14.6159 19.4352L15.0067 18.378V18.2967L20.7905 3.17143L21.025 2.6022C21.025 2.52088 21.1032 2.43956 21.1032 2.35824C21.1032 2.19561 21.1813 2.11429 21.1813 1.95165C21.3377 0.975825 20.7124 0.162637 19.8526 0Z" transform="translate(47.7554 1.05707)" fill="white"/>
<path d="M23.917 1.70769C23.917 1.62637 23.917 1.54506 23.917 1.54506C23.8388 0.731869 23.2135 0.0813187 22.5101 0C22.4319 0 22.2756 0 22.1974 0C21.8848 0 21.6503 0.0813224 21.4158 0.162641C21.1813 0.24396 21.025 0.406596 20.8687 0.650552C20.6342 0.894508 20.5561 1.21978 20.4779 1.62637C20.4779 1.70769 20.4779 1.78901 20.4779 1.87033C20.4779 1.95165 20.4779 2.03297 20.4779 2.11428V4.14725C18.4457 1.70769 15.4757 0.243959 11.9585 0.243959C5.15856 0.243959 0 5.61099 0 12.767C0 20.0044 5.15856 25.3714 11.9585 25.3714C15.3194 25.3714 18.2894 23.989 20.4779 21.3868V23.4198V23.5011V23.5824C20.4779 24.5582 21.2595 25.3714 22.1974 25.3714C22.5882 25.3714 22.979 25.2088 23.2135 24.9648L23.2917 24.8835C23.3698 24.8022 23.448 24.7209 23.5262 24.6396C23.7606 24.3956 23.8388 24.0703 23.917 23.6637V23.5824C23.917 23.5011 23.917 23.5011 23.917 23.4198V1.87033C23.917 1.78901 23.917 1.70769 23.917 1.70769ZM18.4458 18.8659C16.8826 20.7363 14.6159 21.7121 11.9585 21.7121C7.0344 21.7121 3.43903 17.8901 3.43903 12.6044C3.43903 7.4 7.0344 3.57802 11.9585 3.57802C17.8986 3.57802 20.6342 8.29451 20.6342 12.6044C20.6342 14.9626 19.8526 17.2396 18.4458 18.8659Z" transform="translate(21.3374 1.05707)" fill="white"/>
<path d="M16.101 0.487911L12.5056 2.84615L11.4895 3.49671L3.82983 8.53846L0.625294 10.6527L0 11.0593V0H12.6619C13.8343 0 15.0067 0.162636 16.101 0.487911Z" transform="translate(100.983 0.569275)" fill="white"/>
<path d="M24.6986 11.222C24.6986 11.4659 24.6986 11.7099 24.6986 11.9539C24.3078 18.622 18.9929 23.7451 12.5838 23.7451C9.61368 23.7451 6.72177 22.6066 4.53329 20.5736V32.9341C4.53329 34.1539 3.59536 35.1297 2.42296 35.1297H2.11033C0.937929 35.1297 0 34.1539 0 32.9341V20.4923L3.67353 16.4264L4.6896 15.2879L15.7883 2.84615L17.0389 1.46374L18.2894 0C21.8066 1.87033 24.2296 5.52967 24.6204 9.92088C24.6204 10.1648 24.6204 10.3275 24.6986 10.5714C24.6986 10.8154 24.6986 11.0593 24.6986 11.222Z" transform="translate(100.983 1.8703)" fill="white"/>
</svg>
