<svg width="52" height="52" viewBox="0 0 52 52" fill="none" xmlns="http://www.w3.org/2000/svg">
<rect width="52" height="52" fill="black" fill-opacity="0"/>
<path d="M6.09375 9.14062V18.4844H33.7188V9.14062H6.09375Z" fill="#444444"/>
<path d="M19.9062 9.14062H33.7188V18.4844H19.9062V9.14062Z" fill="#292929"/>
<path d="M39.8125 20.0078L39.7209 42.006L36.3391 52H4.57031C2.04117 52 0 49.9584 0 47.4297V42.8594L7.2514 33.4446L0 21.5312V20.0078C0 17.4787 2.04117 15.4375 4.57031 15.4375H35.2422C37.7713 15.4375 39.8125 17.4787 39.8125 20.0078Z" fill="#6E6E6E"/>
<path d="M39.8125 20.0078L39.7209 42.006L36.3391 52H19.9062V15.4375H35.2422C37.7713 15.4375 39.8125 17.4787 39.8125 20.0078Z" fill="#5A5A5A"/>
<path d="M32.1953 0H7.61719C5.08804 0 3.04688 2.04117 3.04688 4.57031V12.1875H36.7656V4.57031C36.7656 2.04117 34.7245 0 32.1953 0Z" fill="#ECECF1"/>
<path d="M36.7656 12.1875H19.9062V0H32.1953C34.7245 0 36.7656 2.04117 36.7656 4.57031V12.1875Z" fill="#E2E2E7"/>
<path d="M45.9062 39.8125H39.8125L35.623 46.5728L39.8125 52H45.9062C49.2669 52 52 49.2669 52 45.9062C52 42.5456 49.2669 39.8125 45.9062 39.8125Z" fill="#FF001E"/>
<path d="M24.5781 21.5312V42.8594H0V36.7656L1.88922 35.5163L0 33.7188V30.6719L1.61508 29.0568L0 27.625V21.5312H24.5781Z" fill="#FF5B5B"/>
<path d="M19.9062 21.5312H24.5781V42.8594H19.9062V21.5312Z" fill="#FF3939"/>
<path d="M33.7188 39.8125C30.3581 39.8125 27.625 42.5456 27.625 45.9062C27.625 49.2669 30.3581 52 33.7188 52H39.8125V39.8125H33.7188Z" fill="#FFBD86"/>
<rect width="18.3828" height="9.14062" fill="black" fill-opacity="0" transform="translate(0 27.625)"/>
<path d="M0 27.625H18.3828V30.6719H0V27.625Z" fill="#FF001E"/>
<path d="M0 33.7188H18.3828V36.7656H0V33.7188Z" fill="#FF001E"/>
</svg>
