<svg width="90" height="22" viewBox="0 0 90 22" fill="none" xmlns="http://www.w3.org/2000/svg">
<path fill-rule="evenodd" clip-rule="evenodd" d="M8.77449 7.98064L8.5763 7.94405C5.33026 7.35327 3.88132 6.85922 3.88132 5.49993C3.88132 4.59547 4.35002 3.92366 5.31419 3.45052C6.46316 2.88589 7.83443 2.82577 8.36472 2.82577C10.1404 2.84668 11.9295 3.09763 12.9954 4.77322L13.0651 4.88301C13.1267 5.01894 13.2043 5.14442 13.3007 5.25421C13.3516 5.31171 13.4052 5.364 13.4641 5.41105C13.7239 5.63063 14.0614 5.76394 14.4283 5.76394C14.7604 5.76394 15.0711 5.65415 15.3148 5.47117L15.4085 5.39536C15.7138 5.13657 15.904 4.7497 15.904 4.32361C15.904 4.22166 15.8933 4.11972 15.8692 4.023C15.8397 3.86877 15.7808 3.725 15.7005 3.5943C15.679 3.5577 15.6549 3.5211 15.6281 3.48712L15.4782 3.26754C13.6168 0.554175 11.292 0 8.37543 0C5.8418 0 3.55458 0.77114 2.25562 2.06509C1.31824 2.9983 0.854898 4.17461 0.884359 5.54959C0.884359 9.37654 4.85353 10.1346 8.04601 10.7411C11.2331 11.3371 13.1641 11.8285 13.1481 13.627C13.1481 16.173 9.81098 16.4475 8.37543 16.4475C6.44977 16.4475 4.02327 15.53 3.11534 13.7786L2.74574 13.0676L2.72566 13.0772C2.50229 12.7601 2.15894 12.5304 1.7572 12.4624C1.67444 12.4462 1.58579 12.4381 1.49741 12.4381C1.25985 12.4381 1.03327 12.4919 0.834276 12.5918C0.640906 12.6835 0.472444 12.8156 0.336924 12.9748C0.126949 13.2283 0 13.5519 0 13.8996C0 14.064 0.0294608 14.2214 0.0811511 14.3691L0.0752589 14.372L0.100702 14.4216C0.136323 14.5115 0.180246 14.5968 0.232472 14.6773L0.44459 15.0885C2.03279 18.1573 5.58148 19.25 8.3749 19.25C9.72474 19.25 11.6799 19.0696 13.327 18.207C15.1562 17.2477 16.1284 15.674 16.1418 13.6507C16.1424 9.36347 12.058 8.59755 8.77449 7.98064Z" fill="#3B3E59"/>
<path fill-rule="evenodd" clip-rule="evenodd" d="M2.55337 0.0369531C2.433 0.0123177 2.30454 0 2.17608 0C1.8309 0 1.50164 0.0825 1.21259 0.234609C0.931646 0.374688 0.686726 0.576354 0.48984 0.819271C0.184877 1.20628 0 1.70042 0 2.2318C0 3.45898 0.975492 4.45958 2.1758 4.45958C2.66564 4.45958 3.11917 4.29086 3.48055 4.00669L3.61711 3.89154C4.06674 3.48792 4.34768 2.89094 4.34768 2.23208C4.34796 1.13237 3.56908 0.218281 2.55337 0.0369531Z" transform="translate(85.6523 16.6008)" fill="#199AB1"/>
<path fill-rule="evenodd" clip-rule="evenodd" d="M20.2061 9.48331H6.85127C6.77078 9.49209 6.69352 9.50379 6.61625 9.52134C6.17516 9.61494 5.79847 9.86358 5.55378 10.197C5.54734 10.2058 5.5409 10.2146 5.53768 10.2234C5.36061 10.472 5.25758 10.7704 5.25758 11.0892C5.25758 11.4198 5.36705 11.7269 5.55378 11.9814C5.64393 12.1013 5.74695 12.2125 5.8693 12.3032C6.07857 12.4728 6.33614 12.5957 6.61625 12.6512C6.66454 12.6659 6.71283 12.6746 6.76434 12.6805H20.4508L20.4862 12.6395C22.6369 12.6542 23.4643 11.6304 23.738 10.551C23.4804 4.73581 18.3613 0.0848291 12.0477 0.00292514C11.9897 0 11.9318 0 11.8738 0C10.4347 0 9.05347 0.236937 7.77529 0.672783C3.93755 1.98325 1.03026 5.07512 0.225369 8.86611C0.077268 9.55937 0 10.276 0 11.0102C0 12.698 0.408891 14.2981 1.14296 15.7256C1.15261 15.746 1.16227 15.7694 1.17515 15.7899C1.46169 16.3457 1.79975 16.8751 2.18288 17.3724C2.19897 17.3929 2.21508 17.4163 2.23117 17.4368C3.44174 18.9959 5.07728 20.2478 6.98649 21.0493H6.98972C8.53512 21.6665 10.2801 22 12.1636 22C12.3857 22 12.6079 21.9942 12.8268 21.9854C13.7315 21.9181 14.6073 21.7572 15.4411 21.5115C15.4669 21.5027 15.4926 21.4969 15.5216 21.4881C17.4083 20.9879 19.9453 19.9846 21.6131 18.013C21.6453 17.975 21.6775 17.937 21.7064 17.896C21.7708 17.8083 21.8256 17.7147 21.8674 17.6181C21.8803 17.586 21.8932 17.5509 21.906 17.5158C21.9511 17.3812 21.9769 17.2349 21.9769 17.0858C21.9769 17.0009 21.9672 16.9161 21.9511 16.8371V16.8254C21.9447 16.7874 21.935 16.7523 21.9254 16.7172C21.9221 16.7113 21.9221 16.7084 21.9189 16.7026C21.9157 16.6821 21.9093 16.6616 21.8996 16.6441C21.7129 16.1146 21.1977 15.7197 20.5699 15.6554C20.5377 15.6495 20.5023 15.6466 20.4669 15.6466H20.4508C20.4283 15.6437 20.4057 15.6437 20.3864 15.6437C19.8938 15.6437 19.4527 15.8484 19.1597 16.1673C18.8829 16.4422 18.5577 16.7026 18.1939 16.9395C17.6594 17.2905 17.0348 17.6006 16.3587 17.8521C16.3555 17.8551 16.3555 17.8551 16.3523 17.8551C16.3426 17.858 16.3329 17.858 16.3233 17.8609L16.3201 17.8668C15.0548 18.3319 13.6027 18.601 12.1636 18.601C8.43853 18.601 4.48166 16.5241 4.04058 11.8907C4.00194 11.4256 3.96974 10.6387 4.03092 10.3492L4.04058 10.2819C4.09209 9.77583 4.18224 9.29318 4.31102 8.83393C4.53317 8.01782 4.88089 7.26313 5.34129 6.59035C6.78688 4.48717 9.27562 3.27909 12.1636 3.27909C13.5512 3.27909 14.7843 3.478 15.8436 3.85534C15.9273 3.88459 16.0078 3.91677 16.0915 3.94894C16.1816 3.98404 16.2686 4.01915 16.3555 4.05717C16.3684 4.0601 16.378 4.06595 16.3877 4.06887C16.4907 4.11568 16.5905 4.1654 16.6903 4.21221C18.8281 5.25063 20.351 7.19293 20.6407 9.48039H20.2061V9.48331Z" transform="translate(61.7188)" fill="#3B3E59"/>
<path fill-rule="evenodd" clip-rule="evenodd" d="M0.0284844 0H0C0.0189904 0.174167 0.0284844 0.348333 0.0284844 0.5225V0Z" transform="translate(48.4255)" fill="#199AB1"/>
<path fill-rule="evenodd" clip-rule="evenodd" d="M17.6474 0.063579C17.559 0.0469931 17.462 0.0359359 17.3679 0.0359359C17.1113 0.0359359 16.8632 0.0967506 16.6465 0.204558C16.4355 0.301309 16.253 0.447817 16.1076 0.616439C16.0363 0.702133 15.9736 0.793355 15.9223 0.89287C15.8938 0.945391 15.8709 0.997913 15.851 1.0532C15.8367 1.07255 15.8253 1.09466 15.8139 1.11401L15.6999 1.39044L14.1344 5.19136L14.1145 5.24388L12.9882 8.03583L12.934 8.17404L12.9311 8.17128L12.6603 8.8043L11.1291 12.4062L9.50375 16.2292L7.86134 12.3703L6.33013 8.76837L6.05925 8.13534L6.00222 7.99989L4.87591 5.20795L4.85595 5.15542L3.29053 1.35451L3.17647 1.07808C3.16506 1.05873 3.15366 1.03661 3.1394 1.01726C3.11944 0.961977 3.09663 0.909455 3.06812 0.856934C3.01679 0.757419 2.95406 0.666197 2.88278 0.580504C2.73735 0.411881 2.55486 0.265373 2.34386 0.168622C2.12715 0.0608147 1.87908 0 1.62245 0C1.52836 0 1.43141 0.0110572 1.34301 0.027643C0.581687 0.157565 0 0.801648 0 1.58118C0 1.69452 0.0142576 1.81062 0.0370689 1.92119C0.0399203 1.92395 0.0399195 1.92672 0.0399195 1.92948C0.057028 2.00688 0.0826925 2.08152 0.111207 2.15339C0.111207 2.15616 0.114057 2.15892 0.114057 2.16168L0.302249 2.61503V2.61779L5.48611 15.176V15.1843L5.51463 15.2534L5.51748 15.2507L5.88816 16.1076L7.42792 19.6652C7.42792 19.668 7.43077 19.6708 7.43077 19.6763L7.49636 19.8283C7.72732 20.3149 8.14077 20.7046 8.65118 20.9147C8.91636 21.0225 9.2072 21.0833 9.5123 21.0833C9.81455 21.0833 10.0997 21.0253 10.362 20.9147C10.536 20.8456 10.6956 20.7544 10.8411 20.6466L10.9808 20.536C11.1918 20.3591 11.3657 20.1407 11.4883 19.8974L11.6109 19.6183C11.6109 19.6155 11.6138 19.61 11.6138 19.6044C11.6223 19.5796 11.6309 19.5574 11.6366 19.5326L13.1022 16.1435L13.4729 15.2866L13.4758 15.2894L13.5043 15.2202V15.212L18.6881 2.65373V2.65097L18.8763 2.19762C18.8763 2.19486 18.8792 2.19209 18.8792 2.18933C18.9077 2.11746 18.9334 2.04282 18.9505 1.96542C18.9505 1.96265 18.9505 1.95989 18.9533 1.95713C18.9761 1.84655 18.9904 1.73045 18.9904 1.61712C18.9904 0.837584 18.4087 0.193501 17.6474 0.063579Z" transform="translate(42.7284)" fill="#3B3E59"/>
<path fill-rule="evenodd" clip-rule="evenodd" d="M16.1218 15.7842C14.7538 17.3136 12.7857 18.1184 10.4379 18.1184C6.14424 18.1184 3.02871 14.9517 3.02871 10.5873C3.02871 6.23954 6.14424 3.08935 10.4379 3.08935C15.6444 3.08935 18.0145 6.98353 18.0145 10.6039C18.0145 12.5842 17.3445 14.4206 16.1218 15.7842ZM20.8894 1.51397C20.8894 1.45728 20.8861 1.40307 20.8791 1.34886V1.33586C20.8009 0.672078 20.2845 0.135522 19.6312 0.0248918C19.5447 0.00829726 19.4553 0 19.366 0C19.1231 0 18.8914 0.0553151 18.6876 0.157648C18.4894 0.254449 18.3191 0.389971 18.1795 0.555916C18.1625 0.576659 18.1488 0.599892 18.1329 0.621465C17.981 0.82779 17.8769 1.07118 17.8465 1.33696C17.8381 1.39505 17.8353 1.45313 17.8353 1.51397C17.8353 1.57205 17.8381 1.63013 17.8465 1.68822C17.8465 1.6896 17.847 1.6907 17.8473 1.69181V3.38528C16.1053 1.34139 13.4504 0.165945 10.4382 0.165945C4.48626 0.165945 0 4.6437 0 10.5873C0 16.5724 4.48626 21.0833 10.4382 21.0833C13.3974 21.0833 15.9769 19.9245 17.8473 17.7838V19.4798C17.8473 19.4817 17.8468 19.4839 17.8465 19.4858C17.8437 19.508 17.8437 19.5301 17.8437 19.5522C17.8437 19.5688 17.8437 19.5882 17.8465 19.6048C17.8716 20.4096 18.5416 21.0568 19.3652 21.0568C19.7057 21.0568 20.024 20.9434 20.2753 20.7526L20.373 20.6751C20.445 20.612 20.5109 20.5421 20.5698 20.4666C20.7459 20.2403 20.8582 19.9629 20.8791 19.6617V19.6479C20.8827 19.6161 20.8838 19.5832 20.8838 19.5522C20.8838 19.5116 20.8813 19.4726 20.8791 19.4325V1.68434C20.8861 1.62737 20.8894 1.57067 20.8894 1.51397Z" transform="translate(18.9904)" fill="#3B3E59"/>
</svg>
